<svg xmlns="http://www.w3.org/2000/svg" xmlns:xlink="http://www.w3.org/1999/xlink" width="170" height="170" viewBox="0 0 170 170">
  <defs>
    <polygon id="cobrancajudicial-a" points="0 35.496 0 0 98.888 0 98.888 35.496 98.888 70.992 0 70.992 0 35.496"/>
  </defs>
  <g fill="none" fill-rule="evenodd" transform="translate(2 2)">
    <path stroke="#102E50" stroke-width="3" d="M24.8105607,166.003117 L166.003117,166.003117 L166.003117,0.211161183 L0.211161183,0.211161183 L0.211161183,141.403718 C0.211161183,154.989211 11.2228828,166.003117 24.8105607,166.003117 Z"/>
    <g transform="translate(34.019 47.935)">
      <mask id="cobrancajudicial-b" fill="#fff">
        <use xlink:href="#cobrancajudicial-a"/>
      </mask>
      <path fill="#102E50" d="M78.300853,43.7057495 C60.5673286,26.0955194 68.9083501,34.3820222 59.3650084,24.8847306 C59.3650084,24.8847306 56.4968781,22.049254 52.7165329,23.6963309 C50.0630884,24.8510481 46.6466714,26.4248159 44.0760287,27.6262924 C41.2511947,29.0972294 39.218264,29.5525383 38.2637503,29.546198 C32.8028303,29.5107323 28.3722425,25.1520116 28.3722425,19.7344699 C28.3722425,16.2199926 30.2511422,13.1602297 33.0534301,11.4233987 C36.9939916,8.71551946 46.0642664,3.92467143 46.0642664,3.92467143 C46.0642664,3.92467143 43.3010848,0.447641148 37.2479833,0.447641148 C31.1966774,0.447641148 18.5537599,8.67252467 18.5537599,8.67252467 C18.5537599,8.67252467 14.9671505,10.9538243 9.85439665,8.89899032 L0,5.49130647 L0,39.5061294 C0,39.5061294 2.81386022,40.314907 5.3422043,41.3404417 C5.91323656,39.7232828 6.83462963,38.2299568 8.11276822,36.996581 C12.3073214,33.0291723 19.2598686,32.9879607 23.0761278,36.8901837 C24.2257742,38.076404 25.0280526,39.4914676 25.4374719,41.055725 C26.9751888,41.5270827 28.3680526,42.3620137 29.4873716,43.5072206 C30.6404098,44.6855156 31.4396953,46.1085045 31.8525066,47.6648366 C33.3884277,48.1365905 34.7792963,48.9746917 35.9024062,50.1206911 C37.1671768,51.4158844 38.0097587,52.98034 38.4032162,54.675365 C40.0087706,55.139788 41.4596953,56.0038445 42.6282963,57.190263 C44.9218029,59.5296155 45.735853,62.7035027 45.2426344,65.7650488 C45.2466249,65.7650488 45.2542067,65.7650488 45.2577981,65.7719835 C45.2953082,65.8207241 46.6787945,67.3522897 47.5415281,68.2161481 C49.2322784,69.8967094 51.9930657,69.8967094 53.6890036,68.2161481 C55.3737682,66.5361812 55.3811505,63.799969 53.6890036,62.1114823 C53.6283489,62.0514481 47.5892139,55.7785677 48.0752497,55.292152 C48.5576941,54.8091045 56.251865,62.7593762 56.3951219,62.9048055 C58.0836774,64.5819986 60.8426691,64.5819986 62.5388065,62.9048055 C64.2307539,61.2248386 64.227362,58.4886264 62.5388065,56.8041024 C62.4558053,56.7256419 62.1094349,56.3961472 61.9809427,56.2649834 C61.9809427,56.2649834 54.3524146,49.5165846 54.9330239,48.9400185 C55.520816,48.359886 64.9965197,57.1411261 65.0118829,57.1411261 C66.7152031,58.6643701 69.3389188,58.6530765 70.9775938,57.0250203 C72.5719749,55.4419403 72.6060932,52.9377414 71.1926786,51.2502455 C71.1627503,51.1604913 63.9711756,43.6972298 64.5324313,43.1357218 C65.1018674,42.5668829 72.2178232,49.8431072 72.2327873,49.8581653 C73.917552,51.5349621 76.6803345,51.5349621 78.3764719,49.8581653 C80.0650275,48.1811703 80.0650275,45.4415899 78.3764719,43.749735 C78.3535269,43.7354694 78.323399,43.7204113 78.300853,43.7057495 M33.5392664,59.1707972 C34.334362,57.1423149 34.0685986,54.8734976 32.5442497,53.3169674 C31.1745305,51.9246891 29.1747204,51.5577474 27.2678877,51.9916579 C27.8012103,50.1135583 27.5067157,48.1145978 26.1296141,46.7038931 C24.7557049,45.3151812 22.7596858,44.9409086 20.8530526,45.3787818 C21.3823847,43.5034561 21.0886882,41.5046937 19.7107885,40.0981498 C17.5531565,37.9004622 13.8210956,37.9947734 11.369368,40.3155014 C8.93060932,42.6393995 7.36835125,46.8497188 9.54493787,49.3279623 C11.7179331,51.7937234 14.2147527,50.2934628 16.1181935,49.8627223 C15.5886619,51.7380481 14.0020621,53.4824081 15.9559821,55.9370738 C17.9081063,58.3929283 20.6255974,56.9029706 22.5310335,56.4761928 C21.9997061,58.3443858 20.4823405,60.2638951 22.3612401,62.5398452 C24.2570992,64.8227298 27.3622616,63.6063933 29.4131493,62.9737557 C28.6216452,64.9945108 26.927503,67.1727815 29.1040896,69.613776 C31.2772843,72.0724043 36.2994552,70.9349247 38.7525795,68.6106303 C41.1991195,66.2867321 41.433957,62.6036439 39.2821111,60.3990216 C37.7964695,58.8864768 35.5817742,58.5345932 33.5392664,59.1707972 M98.8875436,8.80329224 L98.8875436,38.5291372 C98.8875436,38.5291372 92.4808889,39.7825245 91.1610502,39.9473709 C89.8454014,40.111821 85.7109044,41.4375267 82.7144815,38.5774815 C78.0935496,34.1795306 61.6754743,17.9657396 61.6754743,17.9657396 C61.6754743,17.9657396 58.8446547,15.2073365 54.2993417,17.5912688 C50.1269355,19.7750871 43.9419498,22.9755242 41.3585376,24.2217787 C36.4748351,26.8030512 32.4271302,22.7076488 32.4271302,19.5880499 C32.4271302,17.1682556 33.9476882,15.5259338 36.121282,14.3181171 C42.0119725,10.7719385 54.4278339,3.85136234 59.5990478,1.1228773 C62.742319,-0.53727637 65.0070944,-0.679535629 69.3225579,2.93063981 C74.6374277,7.36940608 79.3672987,11.4154734 79.3672987,11.4154734 C79.3672987,11.4154734 80.9100036,12.6940235 83.3703106,12.1790767 C89.4118399,10.9106313 98.8875436,8.80329224 98.8875436,8.80329224" mask="url(#cobrancajudicial-b)"/>
    </g>
  </g>
</svg>
