<svg xmlns="http://www.w3.org/2000/svg" xmlns:xlink="http://www.w3.org/1999/xlink" width="170" height="170" viewBox="0 0 170 170">
  <defs>
    <polygon id="direitoconsumidor-a" points="89.685 0 0 0 0 94.324 89.685 94.324"/>
  </defs>
  <g fill="none" fill-rule="evenodd" transform="translate(2 2)">
    <path stroke="#102E50" stroke-width="3" d="M24.8105607,166.003117 L166.003117,166.003117 L166.003117,0.211161183 L0.211161183,0.211161183 L0.211161183,141.403718 C0.211161183,154.989211 11.2228828,166.003117 24.8105607,166.003117 Z"/>
    <g transform="translate(38.657 37.111)">
      <mask id="direitoconsumidor-b" fill="#fff">
        <use xlink:href="#direitoconsumidor-a"/>
      </mask>
      <path fill="#102E50" d="M68.627713,19.7269217 L61.5726894,10.141735 L60.2930435,11.0834554 L67.3551952,20.6652485 L68.627713,19.7269217 Z M71.0923042,17.9042261 L64.0437297,8.32277231 L62.7539009,9.26449272 L69.8062092,18.8459465 L71.0923042,17.9042261 Z M41.6831911,20.6954514 L48.2928844,20.6954514 L47.8977895,20.1555317 L49.1770959,19.2138113 L50.2710744,20.6954514 L51.8911671,20.6954514 L50.2303429,18.4376979 L51.5130436,17.4959775 L53.8659628,20.6954514 L55.7022716,20.6954514 L52.6979889,16.6217895 L53.9840839,15.6804084 L57.6804615,20.6954514 L59.793744,20.6954514 L55.4018772,14.7285073 L56.6815231,13.7833933 L61.7685397,20.6954514 L63.6048485,20.6954514 L57.8763118,12.906151 L59.1556182,11.9678242 L65.5762498,20.6954514 L71.2070311,20.6954514 L76.739378,16.6285767 L66.3762831,2.53467019 L41.6831911,20.6954514 Z M77.2831426,18.4848688 L74.2720714,20.698845 L76.9521997,20.698845 L77.2831426,18.4848688 Z M33.6828587,60.8677172 L25.9252178,20.698845 L38.6181507,20.698845 L66.747618,0 L79.3356674,17.0911226 L78.7919028,20.698845 L89.6851852,20.698845 L80.6146344,60.8677172 L33.6828587,60.8677172 Z M72.7799432,76.6394131 C67.9020147,76.6394131 63.9391856,80.5946388 63.9391856,85.47835 C63.9391856,90.3586676 67.9020147,94.3240741 72.7799432,94.3240741 C77.6646604,94.3240741 81.6274894,90.3586676 81.6274894,85.47835 C81.6312231,80.5946388 77.6680547,76.6394131 72.7799432,76.6394131 L72.7799432,76.6394131 Z M36.322595,76.6394131 C31.4382173,76.6394131 27.4784432,80.5946388 27.4784432,85.47835 C27.4784432,90.3586676 31.4382173,94.3240741 36.322595,94.3240741 C41.2073122,94.3240741 45.1670863,90.3586676 45.1670863,85.47835 C45.1670863,80.5946388 41.2073122,76.6394131 36.322595,76.6394131 L36.322595,76.6394131 Z M30.3781818,65.7582155 L82.711285,65.7582155 L82.711285,72.2922281 L25.125524,72.2922281 L14.5156645,24.1412997 L0,24.1412997 L0,17.6106808 L19.7615337,17.6106808 L30.3781818,65.7582155 Z" mask="url(#direitoconsumidor-b)"/>
    </g>
  </g>
</svg>
