<svg xmlns="http://www.w3.org/2000/svg" xmlns:xlink="http://www.w3.org/1999/xlink" width="170" height="170" viewBox="0 0 170 170">
  <defs>
    <polygon id="direitotributario-a" points="72.549 30.926 .144 30.926 .144 .227 72.549 .227"/>
    <polygon id="direitotributario-c" points="0 29.33 0 .208 23.064 .208 23.064 29.33"/>
  </defs>
  <g fill="none" fill-rule="evenodd" transform="translate(2 2)">
    <path stroke="#102E50" stroke-width="3" d="M24.8105607,166.003117 L166.003117,166.003117 L166.003117,0.211161183 L0.211161183,0.211161183 L0.211161183,141.403718 C0.211161183,154.989211 11.2228828,166.003117 24.8105607,166.003117 Z"/>
    <g transform="translate(34.019 41.75)">
      <path fill="#102E50" d="M76.2701072,24.2644412 C73.2399608,23.0764876 72.3645281,22.3581251 72.3645281,21.0608798 C72.3645281,20.0227481 73.1685086,18.8099174 75.4352593,18.8099174 C77.440209,18.8099174 78.9778611,19.5830655 78.9912941,19.589774 C79.1533477,19.6741886 79.3348364,19.719191 79.5146102,19.719191 C79.953327,19.719191 80.3414555,19.4595184 80.5023659,19.0575708 L81.0531197,17.6806627 C81.2448975,17.178927 80.953944,16.7417601 80.582964,16.5849502 C79.3485552,16.0594554 76.936042,15.652756 76.9114624,15.6485632 C76.8725924,15.6418548 76.7374048,15.6136234 76.7374048,15.4590497 L76.729688,13.4616106 C76.729688,12.8600868 76.2160893,12.3703704 75.585309,12.3703704 L74.5972675,12.3703704 C73.9676304,12.3703704 73.4540317,12.8598072 73.4540317,13.4618901 L73.4568898,15.5619125 C73.4568898,15.7229152 73.278545,15.7927948 73.2133806,15.8076093 C70.1680864,16.5170272 68.2648847,18.698669 68.2648847,21.4505286 C68.2648847,24.881059 71.1644163,26.4312686 74.2951674,27.5949041 C76.7979963,28.5558886 77.8189058,29.5302901 77.8189058,30.9594681 C77.8189058,32.514709 76.3729984,33.6009179 74.3014552,33.6009179 C72.5325837,33.6009179 70.1386481,32.5043668 70.1149259,32.4931861 C69.9617323,32.4221884 69.7993929,32.38641 69.6324804,32.38641 C69.176901,32.38641 68.7801982,32.6558659 68.6215742,33.073187 L68.0956858,34.4657481 C67.9087667,34.9856525 68.1965763,35.4077254 68.5649841,35.5955618 C70.0351852,36.3443919 72.8801274,36.7832359 73.0067407,36.8025227 C73.040752,36.8072745 73.2139522,36.8668119 73.2139522,37.0216652 L73.2139522,39.1124635 C73.2139522,39.7139873 73.7275509,40.2037037 74.3583312,40.2037037 L75.3792407,40.2037037 C76.0103069,40.2037037 76.5239055,39.7142668 76.5239055,39.1124635 L76.5239055,36.9120939 C76.5239055,36.7063683 76.6790998,36.6881996 76.7111104,36.6806526 C79.9553276,35.9678805 81.9537037,33.6464794 81.9537037,30.7316606 C81.9528463,27.737738 80.2528547,25.8031905 76.2701072,24.2644412"/>
      <path fill="#102E50" d="M74.2225024,46.4819281 C63.068227,46.4819281 54.0271809,37.4399539 54.0271809,26.287037 C54.0271809,15.1341202 63.068227,6.0924262 74.2225024,6.0924262 C85.3759373,6.0924262 94.4169834,15.1341202 94.4169834,26.287037 C94.4169834,37.4399539 85.3759373,46.4819281 74.2225024,46.4819281 M74.2225024,0 C59.7039278,0 47.9351852,11.7693323 47.9351852,26.2867568 C47.9351852,40.8044615 59.7039278,52.5740741 74.2225024,52.5740741 C88.7402364,52.5740741 100.509259,40.8044615 100.509259,26.2867568 C100.509259,11.7693323 88.7402364,0 74.2225024,0"/>
      <g transform="translate(27.833 54.12)">
        <mask id="direitotributario-b" fill="#fff">
          <use xlink:href="#direitotributario-a"/>
        </mask>
        <path fill="#102E50" d="M67.2487244,10.125121 C61.6290162,13.1121857 53.8997343,15.8740879 46.1915791,17.0384219 C39.3335632,18.0741691 26.4316145,15.5762224 26.4316145,12.6260518 C26.4316145,11.5081067 37.7470872,15.3806295 44.5918636,13.6219209 C49.8405866,12.2733878 49.0955175,7.54497645 46.2405931,6.92130361 C43.4022883,6.30088613 26.7733041,0.434183723 19.6707816,0.231808804 C16.3248721,0.136589506 8.06432356,1.3524667 4.06714763,1.9793949 C2.69785431,2.19397742 1.83926431,2.17037606 1.75363066,3.43237086 C1.35588489,9.29744558 0.571942636,21.2912792 0.144619459,27.5562208 C0.13560539,27.6886054 0.326590963,29.4687451 1.85194034,28.2159738 C3.52151481,26.8449245 5.86320075,25.3252136 8.02911235,25.798326 C11.4271344,26.5408195 40.8245465,31.7274228 44.8794688,30.8197198 C50.6803034,29.5211022 67.1014007,20.1491902 70.2498458,17.236185 C75.129837,12.720186 71.3363227,7.95243908 67.2487244,10.125121" mask="url(#direitotributario-b)"/>
      </g>
      <g transform="translate(0 55.667)">
        <mask id="direitotributario-d" fill="#fff">
          <use xlink:href="#direitotributario-c"/>
        </mask>
        <path fill="#102E50" d="M11.9480241,26.0143316 C9.5864336,26.0143316 7.67232622,24.13847 7.67232622,21.8246856 C7.67232622,19.510624 9.58671646,17.6350395 11.9480241,17.6350395 C14.3093316,17.6350395 16.2237219,19.5109012 16.2237219,21.8246856 C16.2237219,24.1387472 14.3096145,26.0143316 11.9480241,26.0143316 M21.0524092,0.957110727 L5.58765481,0.210424668 C4.39370664,0.152774074 3.17430115,1.03444013 2.87786484,2.16888187 L0.065679878,27.1845278 C-0.230756436,28.3192467 0.50411145,29.2848942 1.69862534,29.3300723 L18.8370569,29.3284093 C20.0318537,29.3735874 21.0835237,28.4550582 21.1751701,27.2870794 L23.0573144,3.18525075 C23.148395,2.01754906 22.2460745,1.01476132 21.0524092,0.957110727" mask="url(#direitotributario-d)"/>
      </g>
    </g>
  </g>
</svg>
