<svg xmlns="http://www.w3.org/2000/svg" xmlns:xlink="http://www.w3.org/1999/xlink" width="170" height="170" viewBox="0 0 170 170">
  <defs>
    <polygon id="direitofamilia-a" points="0 70.368 106.638 70.368 106.638 .454 0 .454 0 70.368"/>
  </defs>
  <g fill="none" fill-rule="evenodd" transform="translate(2 2)">
    <path stroke="#102E50" stroke-width="3" d="M24.8105607,166.003117 L166.003117,166.003117 L166.003117,0.211161183 L0.211161183,0.211161183 L0.211161183,141.403718 C0.211161183,154.989211 11.2228828,166.003117 24.8105607,166.003117 Z"/>
    <g transform="translate(29.348 39.06)">
      <g transform="translate(0 18.193)">
        <mask id="direitofamilia-b" fill="#fff">
          <use xlink:href="#direitofamilia-a"/>
        </mask>
        <path fill="#102E50" d="M101.817062,36.6526095 C101.648076,36.6793184 101.478578,36.7060273 101.309079,36.7327362 C101.846852,39.1457816 102.384112,41.5583135 102.921885,43.9713589 C103.022557,43.9503 103.122715,43.9302683 103.22236,43.909723 C102.753927,41.490514 102.285494,39.0713049 101.817062,36.6526095 L101.817062,36.6526095 Z M0.000205452999,40.0441249 C0.279107899,38.6218765 0.496374445,37.1847328 0.850780867,35.7820024 C1.8343871,31.8809636 3.74150456,28.5788203 7.31330494,26.4867951 C10.2461465,24.7686944 12.7855456,24.7060313 15.4353756,27.0055639 C16.6819617,28.087274 18.1396507,28.9332267 19.5398129,29.82592 C20.1084041,30.1885445 20.7786945,30.391943 21.5419524,30.7293995 C21.4690165,29.4227185 21.3996761,28.2891316 21.3447175,27.155031 C21.0447561,20.9678139 21.6852558,14.9506093 24.8194413,9.45165975 C27.2684411,5.15461028 30.7385422,2.06048812 35.6452734,0.824688336 C39.8467873,-0.233908239 43.5202869,1.06969104 46.8743071,3.51149992 C49.5657414,5.4710079 51.5129221,8.06331111 52.9058935,11.0778202 C53.0640923,11.4198995 53.2258865,11.7599242 53.4030897,12.1374441 C54.2654787,10.9124306 55.0410638,9.6817671 55.9435161,8.55383014 C57.8069748,6.22758857 60.0448715,4.30814393 62.7121651,2.96139952 C66.4108327,1.0943454 69.9805786,1.72046341 73.3854484,3.77756156 C77.7677608,6.42379618 80.4771723,10.4106116 82.2456089,15.1082944 C83.7762338,19.1736956 84.3761565,23.4137319 84.5163782,27.7313267 C84.5482234,28.6923331 84.5210009,29.655394 84.5210009,30.6919044 C86.3711051,30.4047838 87.6860043,29.3651916 89.0348033,28.4195942 C90.1694175,27.6234638 91.2172278,26.7020071 92.3636555,25.9243675 C94.3118635,24.6012502 96.3715299,24.4867102 98.4507142,25.6259471 C102.708214,27.9588659 105.014938,31.7248193 105.92869,36.3403209 C106.389418,38.6681034 106.412018,41.0832034 106.622094,43.4602946 C106.705302,44.3966466 106.468004,45.2020224 105.530111,45.6113875 C104.73963,45.9570622 104.012841,45.6663462 103.05543,44.572309 C103.536703,46.7968513 103.961991,48.8267269 104.417069,50.850439 C105.031887,53.5824502 104.909129,53.7468126 102.091341,53.7827669 C101.816548,53.7858487 101.542268,53.8079349 101.13393,53.8274529 C101.018877,55.8429468 100.902282,57.83995 100.791851,59.8369531 C100.661388,62.1924717 100.553526,64.5495313 100.40149,66.903509 C100.3152,68.2420353 99.4990381,69.0941516 98.3818874,69.107506 C97.2118326,69.1208605 96.3345483,68.236899 96.2626398,66.8624184 C96.0880047,63.5361343 95.9554875,60.2083094 95.7978024,56.8809981 C95.7556845,55.9883048 95.6848032,55.0966388 95.4593185,54.2070273 C95.3689192,55.8018562 95.276979,57.3961715 95.1901751,58.9910004 C95.0499534,61.5540265 94.9200044,64.11808 94.7736192,66.6811061 C94.6852744,68.2276536 93.8531897,69.1753055 92.6600214,69.1249695 C91.4452806,69.0730927 90.6758591,68.1018136 90.6034369,66.5742706 C90.4113384,62.5196556 90.2074263,58.4655543 90.0071096,54.4114531 C89.9983778,54.2419543 89.9726962,54.0729692 89.9403374,53.760167 C89.10928,53.760167 88.2864407,53.7894441 87.4671969,53.7524626 C86.3438826,53.7026402 85.9196222,53.1515125 86.1759248,52.0415527 C87.2432531,47.4224557 88.3907081,42.8208221 89.374828,38.1842616 C89.6860893,36.7193817 89.5792537,35.1651298 89.6691394,33.5605419 C88.4374487,33.8974848 87.3824475,34.1917962 86.3248782,34.4737804 C84.203576,35.0403171 82.2753996,34.220046 80.4181045,33.44292 C79.8135591,33.1902128 79.2947902,32.2030112 79.1520004,31.4705712 C78.6363134,28.8227957 78.36152,26.1287933 77.8658646,23.4769087 C77.6090484,22.1049963 77.0794933,20.7844471 76.67321,19.4412982 L76.302881,19.5245066 C76.6495829,21.3638246 76.9762532,23.2072516 77.3455549,25.0414333 C78.6383679,31.4536214 79.954808,37.8611868 81.2424847,44.2744021 C81.563505,45.8728264 80.8757511,46.7172383 79.2372634,46.7942831 C78.4056924,46.8333192 77.5694987,46.85181 76.7389549,46.811233 C76.0630146,46.7783605 75.8365026,47.0372313 75.8097938,47.7023854 C75.6885765,50.7528488 75.5329458,53.8022849 75.3732061,56.8506938 C75.1908666,60.315145 74.998768,63.7790825 74.7958832,67.2414792 C74.7296246,68.3663343 74.1558971,69.2086916 73.1912953,69.7623875 C71.2436009,70.881079 68.741697,69.6293567 68.5167259,67.3575601 C68.3112729,65.2881348 68.2439871,63.2043278 68.1412606,61.125657 C67.9152623,56.551246 67.7057002,51.9763214 67.4853519,47.4019104 C67.4786747,47.2519297 67.4339886,47.1034899 67.2254538,46.9550501 C67.1751179,47.1990255 67.0913958,47.4414601 67.078555,47.68749 C66.7801345,53.6127545 66.491473,59.538019 66.1935662,65.4627698 C66.1622346,66.0858061 66.1026532,66.7088423 66.0240674,67.3277694 C65.8098827,69.018134 64.4847108,70.2251704 62.884232,70.2071932 C61.2919712,70.1892161 59.8748592,68.9467391 59.7669964,67.2887334 C59.5194255,63.4811757 59.350954,59.667968 59.1573146,55.8568149 C59.005793,52.8803146 58.8645441,49.9033006 58.7125088,46.7983922 C57.5583766,46.7983922 56.4545804,46.8220193 55.3518114,46.7927422 C53.5474205,46.745488 52.8935663,45.8753946 53.2659499,44.0874399 C54.8602651,36.429693 56.4576622,28.7724597 58.0324594,21.1106038 C58.1557312,20.5096538 58.1115588,19.8737767 57.928192,19.1906455 C57.6297715,20.0001303 57.2198928,20.7870153 57.0534759,21.6226954 C56.3965399,24.9099434 55.7817218,28.2064367 55.2228897,31.5116618 C54.9285782,33.252876 53.8663862,34.2945227 52.2582029,34.2041234 C50.7686687,34.1198876 49.7696535,32.9390465 49.7629762,31.1916688 C49.7480809,27.3039844 49.7249674,23.4137319 48.7321158,19.6200423 C48.3623004,18.2070393 47.8147682,16.8397496 47.3483899,15.4519146 C47.2389861,15.4801644 47.1290688,15.5084141 47.0196651,15.5371776 C47.191732,17.0657479 47.350958,18.5958591 47.5389475,20.1228885 C47.9868351,23.7681383 48.4927631,27.4072246 48.8882601,31.0576107 C49.1096357,33.0982726 48.6083304,35.0377489 47.7428596,36.9012076 C47.4310847,37.571498 47.1778639,38.3265378 47.1393414,39.0558959 C46.8671162,44.2528295 46.6637177,49.4533586 46.4248786,54.6523467 C46.2307256,58.881083 46.0345179,63.1098194 45.8049242,67.3365012 C45.7109295,69.0715518 44.3200127,70.3715556 42.6902568,70.3504967 C41.0312238,70.3289241 39.6567432,69.0561428 39.5678848,67.3390694 C39.2720325,61.656753 39.0152162,55.9718686 38.742991,50.288525 C38.7085776,49.5750895 38.6700552,48.8616539 38.3988573,48.1538683 C38.3007534,50.2366481 38.2005951,52.3189143 38.1050595,54.401694 C37.91142,58.6299167 37.7444894,62.8596804 37.5190048,67.0863622 C37.4147374,69.0458701 36.0448795,70.3931282 34.3231834,70.3674466 C32.6204917,70.3412513 31.3189469,68.9421164 31.2244385,66.969254 C30.8037735,58.2359606 30.3974902,49.5026673 29.9860706,40.7688603 C29.9146757,39.2510763 29.8062992,37.7815737 29.0312278,36.3731934 C27.9038045,34.3217452 27.9361633,32.050976 28.2181475,29.7802067 C28.8149885,24.9664429 29.398475,20.150111 29.9845297,15.3348064 C29.9927478,15.2700887 29.9624435,15.2002346 29.9501163,15.1334624 C29.8520125,15.1000763 29.7528814,15.0666902 29.654264,15.0327905 C29.0707775,16.8690266 28.3814827,18.6795812 27.9269179,20.5476626 C27.1009969,23.9396916 27.0229247,27.4128745 27.0876424,30.8886256 C27.1292466,33.1337133 26.3711251,33.7367178 24.2061641,34.2708956 C21.9230677,34.8343505 19.8305289,34.5888341 17.7076858,33.8122218 C17.5916048,33.7695903 17.4452196,33.8065718 17.198676,33.8065718 C17.3162978,36.2293763 17.4020744,38.6146856 17.5566778,40.9953722 C17.7051176,43.279496 17.7888397,45.489143 17.0358545,47.7660758 C16.5098948,49.3547411 16.7400021,51.1976545 16.65628,52.928596 C16.4328499,57.5723474 16.231506,62.2171261 15.9988305,66.8603639 C15.931031,68.2173809 15.0357695,69.1331877 13.8847191,69.1218877 C12.7454822,69.1111015 11.9231566,68.2122446 11.8445708,66.8146506 C11.6088135,62.623923 11.3941151,58.4321682 11.0551177,54.2198681 C10.9878318,54.7946229 10.8876735,55.3683504 10.8594237,55.9451597 C10.6935204,59.3757111 10.5466215,62.8072898 10.3863682,66.2388685 C10.3673638,66.65337 10.3555502,67.0760895 10.26361,67.4777501 C10.0283663,68.5014197 9.09869149,69.2040689 8.15155317,69.1224014 C7.15767429,69.0366248 6.33534866,68.2723396 6.2536811,67.2296656 C6.09394139,65.1895174 5.97580592,63.1457737 5.86948399,61.1020299 C5.64194479,56.7361537 5.43289637,52.3697639 5.21614345,48.0038877 C5.21254803,47.9345473 5.23257969,47.8564751 5.20689807,47.7968938 C3.93206221,44.8019027 4.72511079,41.7113759 4.7805831,38.6552626 C4.78469216,38.449296 4.78109673,38.2433293 4.78109673,38.0368491 C4.69480647,38.0219537 4.60851621,38.0070584 4.52171232,37.9916494 C4.26386881,39.3892434 4.00037533,40.7858102 3.75074994,42.1849451 C3.67216417,42.62821 3.61617823,43.0766111 3.57765579,43.5244987 C3.49804275,44.465987 3.29207612,45.3278624 2.25042942,45.6576144 C1.19851007,45.9909619 0.581637439,45.338135 0.000205452999,44.6252131 L0.000205452999,40.0441249 Z" mask="url(#direitofamilia-b)"/>
      </g>
      <path fill="#102E50" d="M76.4449517 10.632244C76.4911786 15.6072884 72.3821187 19.6952894 67.2961297 19.732271 62.3976166 19.7687389 58.1899391 15.6843333 58.131385 10.8361561 58.0682082 5.66028147 62.0997097 1.47109483 67.2021349 1.40997257 72.3374326 1.3488503 76.395643 5.3983289 76.4449517 10.632244M47.521484 9.16053285C47.501966 14.1294136 43.4016378 18.1799195 38.3968027 18.1737559 33.5095895 18.1675923 29.3306755 13.9121471 29.3892296 9.00079314 29.448811 4.02677605 33.6056388-.0545477711 38.5560288.000924538493 43.5582957.0563968481 47.5420293 4.12642075 47.521484 9.16053285M5.20900396 36.5162401C5.25214909 33.3245277 7.94974696 30.7229791 11.1917953 30.7471199 14.3650168 30.770747 17.0605602 33.5279262 17.013306 36.7011478 16.9650245 39.9961002 14.206818 42.6536348 10.8979975 42.5930261 7.7622711 42.5354993 5.1653452 39.7618838 5.20900396 36.5162401M101.409289 36.7397216C101.386175 39.9827971 98.6978228 42.5966729 95.3864341 42.5941048 92.3246708 42.5915366 89.5618416 39.7727215 89.6034458 36.6934946 89.6486455 33.3461517 92.3395661 30.7060806 95.6560911 30.7553893 98.8729715 30.8031572 101.432402 33.465828 101.409289 36.7397216"/>
    </g>
  </g>
</svg>
