<svg xmlns="http://www.w3.org/2000/svg" width="170" height="170" viewBox="0 0 170 170">
  <g fill="none" fill-rule="evenodd" transform="translate(2 2)">
    <path stroke="#102E50" stroke-width="3" d="M24.8105607,166.003117 L166.003117,166.003117 L166.003117,0.211161183 L0.211161183,0.211161183 L0.211161183,141.403718 C0.211161183,154.989211 11.2228828,166.003117 24.8105607,166.003117 Z"/>
    <g fill="#102E50" transform="translate(37.111 41.75)">
      <path d="M29.3168007 21.3594233L29.3168007 24.5348173 40.9565764 24.5348173 40.9565764 21.3594233C40.9565764 19.7325641 39.6435915 18.4138949 38.0238992 18.4138949L32.2491697 18.4138949C30.6297857 18.4138949 29.3168007 19.7325641 29.3168007 21.3594233M22.5564156 12.1012476C23.393927 12.1012476 24.1907497 11.9281907 24.9155963 11.6179884 25.7380036 12.7620528 27.0687128 13.5138754 28.5809805 13.5138754 29.0744865 13.5138754 29.5407125 13.4148088 29.9855153 13.2682212 29.9784255 13.3505703 29.9608554 13.4298235 29.9608554 13.5138754 29.9608554 15.0712332 31.2177391 16.3334035 32.7682296 16.3334035 34.3185659 16.3334035 35.5756038 15.0710784 35.5756038 13.5138754 35.5756038 11.9566723 34.3185659 10.6943472 32.7682296 10.6943472 32.7676131 10.6943472 32.7669966 10.694502 32.7663801 10.694502 32.9850825 10.1609355 33.1094608 9.5783001 33.1094608 8.96563514 33.1094608 6.4536778 31.0819556 4.41724013 28.5808264 4.41724013 28.4975992 4.41724013 28.4200747 4.43736303 28.3380806 4.44185198 27.6329619 1.88655302 25.3251046.000108354088 22.5564156.000108354088 19.2291801.000108354088 16.5320048 2.70896054 16.5320048 6.0506006 16.5320048 9.39224066 19.2291801 12.1012476 22.5564156 12.1012476M52.4970036 39.7920015L52.4970036 36.1542452C52.4970036 34.700443 51.3238094 33.5218601 49.8759657 33.5218601L40.9566381 33.5218601 40.9566381 27.4023308 29.3168624 27.4023308 29.3168624 33.5218601 18.9720391 33.5218601C18.3065303 33.5218601 17.311658 33.8294309 16.7614342 34.2052648L10.3178053 38.6056791C9.24155528 39.3409389 8.59685332 40.5634826 8.59685332 41.8711617L8.59685332 58.6716177C17.2250401 56.1499085 24.0371802 52.7488285 31.1797628 49.1711313 37.6884322 45.9116856 44.2972824 42.6040997 52.4970036 39.7920015"/>
      <path d="M70.6275394,30.3890803 C66.6995274,30.3890803 63.5036058,27.1793226 63.5036058,23.2344599 C63.5036058,22.5069396 64.0898947,21.9181125 64.8142789,21.9181125 C65.5386631,21.9181125 66.124952,22.5069396 66.124952,23.2344599 C66.124952,25.2673373 67.4761597,26.9705088 69.3171746,27.5381294 L69.3171746,18.4730717 C68.3223022,17.9859426 67.6313629,16.9700457 67.6313629,15.783878 C67.6313629,14.1265248 68.9690078,12.7829342 70.6190626,12.7829342 C72.2692715,12.7829342 73.6070704,14.1265248 73.6070704,15.783878 C73.6070704,16.9630801 72.9236833,17.9732497 71.9385207,18.463939 L71.9385207,27.5381294 C73.7793814,26.9705088 75.1305892,25.2673373 75.1305892,23.2344599 C75.1305892,22.5069396 75.7167239,21.9181125 76.4411081,21.9181125 C77.1654924,21.9181125 77.7517812,22.5069396 77.7517812,23.2344599 C77.7517812,27.1794774 74.5557055,30.3890803 70.6275394,30.3890803 M94.3051938,2.39146759 C94.4771966,1.11118665 93.4442555,-0.0156958635 92.1600918,0.0570561666 C42.7163985,2.85940245 34.5659971,19.9768716 4.93375016,27.0783985 C1.62007762,27.8724792 7.70621518e-05,28.6277072 7.70621518e-05,32.6751967 C7.70621518e-05,34.6432165 0.445958674,36.8646301 0.914034185,38.6547944 C1.44915377,40.7012935 3.20478372,42.1843514 5.30472736,42.3499784 L82.5034335,48.441026 C84.7786165,48.6176432 86.2555897,46.0821575 84.9869925,44.1766735 L81.5153426,38.9507559 C80.9264336,38.0644194 80.9424626,36.9188071 81.5245901,36.0281365 C87.6649023,26.6378617 92.8400882,13.2923532 94.3051938,2.39146759" transform="translate(0 35.296)"/>
    </g>
  </g>
</svg>
