<svg xmlns="http://www.w3.org/2000/svg" xmlns:xlink="http://www.w3.org/1999/xlink" width="170" height="170" viewBox="0 0 170 170">
  <defs>
    <polygon id="direitocontratual-a" points="69.269 .903 0 .903 0 89.685 69.269 89.685"/>
  </defs>
  <g fill="none" fill-rule="evenodd" transform="translate(2 2)">
    <path stroke="#102E50" stroke-width="3" d="M24.8105607,166.003117 L166.003117,166.003117 L166.003117,0.211161183 L0.211161183,0.211161183 L0.211161183,141.403718 C0.211161183,154.989211 11.2228828,166.003117 24.8105607,166.003117 Z"/>
    <g transform="translate(38.657 38.657)">
      <path fill="#102E50" d="M50.0499672 17.0092593L19.5324142 17.0092593C17.2858868 17.0092593 15.462963 18.7413354 15.462963 20.875 15.462963 23.0086646 17.2858868 24.7407407 19.5324142 24.7407407L50.0499672 24.7407407C52.3012543 24.7407407 54.1203704 23.0086646 54.1203704 20.875 54.1184665 18.7413354 52.2993504 17.0092593 50.0499672 17.0092593M54.1203704 36.3370587C54.1203704 34.2020847 52.3011647 32.4722222 50.0497667 32.4722222L19.5326147 32.4722222C17.2859765 32.4722222 15.462963 34.2038932 15.462963 36.3370587 15.462963 38.4720327 17.2859765 40.2037037 19.5326147 40.2037037L50.0516706 40.2037037C52.3011647 40.2037037 54.1203704 38.4720327 54.1203704 36.3370587M34.6244935 55.6666667C36.8523152 55.6666667 38.6574074 53.9349957 38.6574074 51.8018302 38.6574074 49.6668562 36.8523152 47.9351852 34.6244935 47.9351852L19.497764 47.9351852C17.2699424 47.9351852 15.462963 49.6668562 15.462963 51.8018302 15.462963 53.9368042 17.2699424 55.6666667 19.497764 55.6666667L34.6244935 55.6666667z"/>
      <mask id="direitocontratual-b" fill="#fff">
        <use xlink:href="#direitocontratual-a"/>
      </mask>
      <path fill="#102E50" d="M65.3916524,68.7726769 L61.1184732,71.5661344 L61.1184732,81.6118192 L8.14935217,81.6118192 L8.14935217,8.9734276 L61.1184732,8.9734276 L61.1184732,24.9203976 L69.2673487,10.9398933 L69.2673487,4.93665021 C69.2673487,2.7086814 67.4419777,0.901760936 65.1914812,0.901760936 L4.07443779,0.901760936 C1.82394121,0.901760936 -0.000476598174,2.70962546 -0.000476598174,4.93665021 L-0.000476598174,85.6504847 C-0.000476598174,87.8793976 1.82394121,89.685374 4.07443779,89.685374 L65.1914812,89.685374 C67.4438841,89.685374 69.2692551,87.8775095 69.2692551,85.6504847 L69.2692551,63.4076147 L67.321875,66.7439036 C66.8471832,67.5576787 66.1799458,68.2591112 65.3916524,68.7726769" mask="url(#direitocontratual-b)"/>
      <path fill="#102E50" d="M54.7676147 66.9307862C54.0837497 66.3906536 53.3064553 65.8806329 52.4723327 65.4073111 51.6343573 64.9349303 50.7934923 64.5378294 49.9718912 64.2254182L50.259885 59.5147842C51.333842 59.6521699 52.925032 60.0775008 54.9477312 61.2142259 56.9665776 62.353774 58.1368536 63.490499 58.8004916 64.3289279L54.7676147 66.9307862zM89.6370223 19.5562627C89.5522616 19.1949196 88.6834641 15.9456549 83.4446732 12.9890405 78.2068455 10.0352491 74.8925084 10.9235508 74.5264962 11.0355295 74.034306 11.1870301 73.6201343 11.5107333 73.3619993 11.9482972L47.6294129 55.4910785C47.4695233 55.7639678 47.3751307 56.0669691 47.3558669 56.3793803L46.3926768 72.091217C46.3454805 72.8524841 46.7423148 73.5714062 47.4155847 73.9534512 48.0936705 74.3345553 48.9287563 74.3072663 49.5798728 73.8913454L63.0260065 65.2191116C63.2947365 65.049732 63.5153071 64.8182466 63.6751966 64.5491213L89.4106726 20.998812C89.6678444 20.5621891 89.746826 20.0502864 89.6370223 19.5562627L89.6370223 19.5562627zM27.7073941 73.3994611C27.8400414 74.1877954 28.7780475 74.4331162 29.4052798 74.6857875 30.012615 74.9338648 30.7364903 74.4634368 31.2405502 74.2263852 34.3312326 72.7682423 38.517203 74.4818129 41.8267535 74.4818129 43.7861439 74.4818129 43.7861439 71.5370441 41.8267535 71.5370441 37.9667166 71.5370441 34.755704 70.5897566 30.9297764 71.2025993 30.9297764 70.987599 30.8482931 70.6972567 30.6095279 70.3012519 29.8951274 69.115994 28.9855458 68.7797115 28.0731217 68.9221262 28.0124829 68.7833867 27.9537391 68.6428096 27.8684659 68.5013137 27.6297007 68.1227662 27.29524 67.9334925 26.9200375 67.8544753 27.9878484 66.045349 28.6757195 64.131479 27.9764787 62.5842121 27.762348 62.1128653 27.1531178 61.8721385 26.6642177 61.8537624 24.6356612 61.7802581 22.895139 63.844812 21.5914053 65.0842794 18.3292288 68.185245 15.4536245 71.7061042 12.6737157 75.2104249 11.4789424 76.7154269 14.1195715 78.1790826 15.2944477 76.6988884 17.7597928 73.5960853 20.3701025 70.583325 23.1803307 67.7644324 22.5028819 68.8421902 21.7846914 69.8988155 21.0276542 70.916851 19.9475261 72.5376224 22.5275164 73.9158293 23.6502812 72.4043957 23.9174708 72.0093097 24.2566689 71.7244803 24.6280814 71.4800783 24.5541779 71.6620016 24.4783794 71.8402497 24.402581 72.0240106 24.4063709 72.0240106 24.4111083 72.0258482 24.4139507 72.0276858 24.3552069 72.1452928 24.2964631 72.2628998 24.2490891 72.3749939 23.5706928 74.0242482 26.105204 74.7795056 27.0261554 73.50788 27.2592357 73.188136 27.4762088 72.8454219 27.6713898 72.4870881 27.6571776 72.7333277 27.6514927 73.0650162 27.7073941 73.3994611"/>
    </g>
  </g>
</svg>
