<svg xmlns="http://www.w3.org/2000/svg" xmlns:xlink="http://www.w3.org/1999/xlink" width="170" height="170" viewBox="0 0 170 170">
  <defs>
    <polygon id="direitotrabalho-a" points="0 84.71 83.912 84.71 83.912 1.129 0 1.129"/>
  </defs>
  <g fill="none" fill-rule="evenodd" transform="translate(2 2)">
    <path stroke="#102E50" stroke-width="3" d="M24.8105607,166.003117 L166.003117,166.003117 L166.003117,0.211161183 L0.211161183,0.211161183 L0.211161183,141.403718 C0.211161183,154.989211 11.2228828,166.003117 24.8105607,166.003117 Z"/>
    <g transform="translate(41.75 40.204)">
      <g transform="translate(0 .753)">
        <mask id="direitotrabalho-b" fill="#fff">
          <use xlink:href="#direitotrabalho-a"/>
        </mask>
        <path fill="#102E50" d="M47.8451564,73.5797966 L44.0502016,65.0748981 C44.0520916,65.0748981 44.0558714,65.0730156 44.0577613,65.0730156 C48.9072901,64.4875744 53.2068529,61.9086211 56.5860257,58.2453779 C56.5898056,58.2434955 56.5935854,58.2397306 56.5954753,58.2359657 L57.2248179,60.7339738 L47.8451564,73.5797966 Z M36.671963,81.9228047 L37.5091965,77.7437709 L46.4050391,77.7437709 L46.7603436,79.5095068 L47.2441626,81.9133924 L36.671963,81.9228047 Z M26.6894177,60.7339738 L27.3187603,58.2359657 C27.3206502,58.2397306 27.32632,58.2434955 27.3282099,58.2453779 C30.7092726,61.9067386 35.0088354,64.4875744 39.8545844,65.0730156 C39.8583642,65.0730156 39.8602541,65.0748981 39.864034,65.0748981 L36.0690792,73.5797966 L26.6894177,60.7339738 Z M22.3766255,38.7413377 L22.3766255,33.1692926 L61.5357202,33.1692926 L61.5357202,38.7413377 C61.5357202,45.0136533 59.3075072,50.5329899 56.0133807,54.6743747 C55.9642428,54.7214359 55.8999856,54.7515551 55.8565175,54.8042636 C55.3764784,55.4179415 54.87943,55.995853 54.3672623,56.5398804 C54.3634825,56.5417628 54.3615926,56.5455277 54.3578128,56.5474101 C54.0195175,56.9050752 53.664213,57.2250913 53.3126883,57.5507548 C49.8938272,60.6229093 45.8361739,62.4225293 41.9561728,62.4225293 C38.0799516,62.4225293 34.0204084,60.6229093 30.5996574,57.5507548 C30.2481327,57.2250913 29.8947181,56.9050752 29.5545329,56.5474101 C29.552643,56.5455277 29.5488632,56.5417628 29.5469733,56.5398804 C29.0348056,55.995853 28.5358673,55.4179415 28.0539383,54.8042636 C28.0123601,54.7515551 27.9499928,54.7214359 27.9008549,54.6743747 C24.6048385,50.5329899 22.3766255,45.0136533 22.3766255,38.7413377 L22.3766255,38.7413377 Z M79.7583066,70.5019947 C71.367072,66.1027145 64.9508014,63.6611799 59.2489198,62.6973667 L59.8707027,61.8483828 C60.1126121,61.5133071 60.1957685,61.0916388 60.0956029,60.6906775 L58.7972294,55.5195937 C62.2784578,50.6327596 64.3346883,44.5279818 64.3346883,38.7394552 L64.3346883,33.1674101 L65.7313374,33.1674101 L68.5284156,33.1674101 C69.3032819,33.1674101 69.9288447,32.54432 69.9288447,31.7743989 C69.9288447,31.0044778 69.3032819,30.3813876 68.5284156,30.3813876 L67.1298765,30.3813876 L67.1298765,28.9902588 C67.1298765,25.1086517 66.2132665,21.4529383 64.5690381,18.2019512 L52.010535,20.6058369 C51.9217088,20.6227789 51.8328827,20.6321911 51.7459465,20.6321911 C51.3793025,20.6321911 51.0239979,20.4853602 50.7594095,20.2237 C50.4305638,19.8961541 50.28693,19.4293071 50.3738663,18.9756372 L52.6663364,6.98256312 C51.481358,6.45171288 50.2453519,5.99239565 48.9488683,5.62531836 L48.9488683,5.32977407 C48.9488683,3.01436345 47.0570607,1.12815089 44.7324619,1.12815089 L39.1836636,1.12815089 C36.8571749,1.12815089 34.9634774,3.01436345 34.9634774,5.32977407 L34.9634774,5.62531836 C33.6707737,5.99239565 32.4328776,6.45171288 31.2478992,6.98256312 L33.5422593,18.9756372 C33.6291955,19.4293071 33.4817819,19.8961541 33.156716,20.2237 C32.8902377,20.4853602 32.5330432,20.6321911 32.1663992,20.6321911 C32.077573,20.6321911 31.9887469,20.6227789 31.9018107,20.6058369 L19.3470874,18.2019512 C17.7009691,21.4529383 16.7824691,25.1086517 16.7824691,28.9902588 L16.7824691,30.38327 L15.38393,30.38327 C14.6128436,30.38327 13.9853909,31.0044778 13.9853909,31.7743989 C13.9853909,32.54432 14.6128436,33.1692926 15.38393,33.1692926 L18.1810082,33.1692926 L19.5795473,33.1692926 L19.5795473,38.7413377 C19.5795473,44.5279818 21.6376677,50.6327596 25.1151163,55.5195937 L23.8167428,60.6906775 C23.7165772,61.0916388 23.7997335,61.5133071 24.0435329,61.8483828 L24.6634259,62.6973667 C18.9653241,63.6611799 12.5452737,66.1027145 4.15781893,70.5019947 C1.5913107,71.8441799 0,74.4720768 0,77.3597515 L0,83.3158159 C0,84.085737 0.627452675,84.7107097 1.39853909,84.7107097 L34.9634774,84.7107097 L34.9653673,84.7107097 L35.4888745,84.7107097 C35.4888745,84.7107097 35.4888745,84.7088272 35.4907644,84.7088272 L48.3629938,84.6975325 C48.3856728,84.699415 48.4026821,84.7107097 48.427251,84.7107097 L82.5138066,84.7107097 C83.2886728,84.7107097 83.9123457,84.085737 83.9123457,83.3176984 L83.9123457,77.3597515 C83.9123457,74.4720768 82.321035,71.8441799 79.7583066,70.5019947 L79.7583066,70.5019947 Z" mask="url(#direitotrabalho-b)"/>
      </g>
      <path fill="#102E50" d="M55.2553347 9.08732786L53.5052709 18.2341411 63.0758141 16.400637C61.0895106 13.4602538 58.4322863 10.9678931 55.2553347 9.08732786M28.658145 9.08732786C25.4811933 10.9678931 22.825859 13.4602538 20.8376655 16.400637L30.4082087 18.2341411 28.658145 9.08732786z"/>
    </g>
  </g>
</svg>
