<svg xmlns="http://www.w3.org/2000/svg" xmlns:xlink="http://www.w3.org/1999/xlink" width="170" height="170" viewBox="0 0 170 170">
  <defs>
    <polygon id="direitoprevidenciario-a" points="92.645 .168 92.645 69.287 0 69.287 0 .168 92.645 .168"/>
  </defs>
  <g fill="none" fill-rule="evenodd" transform="translate(2 2)">
    <path stroke="#102E50" stroke-width="3" d="M24.8105607,166.003117 L166.003117,166.003117 L166.003117,0.211161183 L0.211161183,0.211161183 L0.211161183,141.403718 C0.211161183,154.989211 11.2228828,166.003117 24.8105607,166.003117 Z"/>
    <g transform="translate(37.111 40.204)">
      <path fill="#102E50" d="M62.2518684 17.2650026C66.9911635 17.2650026 70.8313388 13.4006943 70.8313388 8.63254278 70.8313388 3.86418383 66.9911635.0000829784903 62.2518684.0000829784903 57.5123672.0000829784903 53.6721919 3.86418383 53.6721919 8.63254278 53.672398 13.4006943 57.5123672 17.2650026 62.2518684 17.2650026M22.9509749 17.2650026C27.6900638 17.2650026 31.5302391 13.4006943 31.5302391 8.63254278 31.5302391 3.86418383 27.6900638.0000829784903 22.9509749.0000829784903 18.2116799.0000829784903 14.3715046 3.86418383 14.3715046 8.63254278 14.3715046 13.4006943 18.2116799 17.2650026 22.9509749 17.2650026"/>
      <g transform="translate(0 15.786)">
        <mask id="direitoprevidenciario-b" fill="#fff">
          <use xlink:href="#direitoprevidenciario-a"/>
        </mask>
        <path fill="#102E50" d="M88.8276093,29.3184996 C89.0983142,28.116971 88.6946278,26.8108896 87.6740722,25.9898174 L79.9063043,19.7415371 L72.7180883,2.16088436 C72.278734,1.0867278 71.343534,0.372075551 70.2889599,0.168155911 C68.3028969,2.37310185 65.4354451,3.76050221 62.2519302,3.76050221 C59.0684154,3.76050221 56.2009636,2.37310185 54.2146944,0.168155911 C53.159708,0.371868105 52.2238895,1.08652035 51.7845352,2.16088436 L42.6007722,24.6225394 L33.4170093,2.16088436 C32.9776549,1.0867278 32.0426611,0.371868105 30.9878809,0.168155911 C29.0018179,2.37330929 26.134366,3.76050221 22.9508512,3.76050221 C19.7673364,3.76050221 16.8998846,2.37310185 14.9136154,0.168155911 C13.8584228,0.371868105 12.9226043,1.08652035 12.48325,2.16088436 L0.248953704,32.0837578 C-0.444199383,33.7790083 0.359874691,35.718838 2.04471914,36.4160648 C2.45520926,36.5859632 2.88033765,36.6664523 3.29866235,36.6664523 C4.59590185,36.6664523 5.82634136,35.8912258 6.35063889,34.6092081 L12.5498438,19.4469635 L12.5498438,23.6462974 L6.39579074,42.9910729 C5.36080309,46.244452 7.77281914,49.569815 11.1678673,49.569815 L12.5496377,49.569815 L12.5496377,64.9187613 C12.5496377,67.3838448 14.5796154,69.3720094 17.0491537,69.2836373 C19.4013796,69.1994142 21.2315759,67.1824145 21.2315759,64.814001 L21.2315759,49.569815 L24.6686833,49.569815 L24.6686833,64.9187613 C24.6686833,67.3838448 26.6982488,69.371802 29.167787,69.2836373 C31.5202191,69.1996216 33.3506216,67.1822071 33.3506216,64.8137935 L33.3506216,49.569815 L34.732392,49.569815 C38.1274401,49.569815 40.5396623,46.244452 39.5044685,42.9910729 L33.3504154,23.6462974 L33.3504154,19.446756 L38.3111401,31.5807007 C39.026766,33.330717 40.7215068,34.4731234 42.6022154,34.4731234 C44.4833364,34.4731234 46.1782833,33.3303021 46.8932907,31.5796634 L51.8500981,19.4469635 L51.8500981,64.9189688 C51.8500981,67.3840523 53.8800759,69.3722169 56.3498204,69.2838448 C58.7020463,69.1996216 60.5324488,67.182622 60.5324488,64.8142084 L60.5324488,41.243131 C60.5324488,40.3220697 61.2229216,39.5180082 62.1366796,39.4584711 C63.1376488,39.393333 63.96935,40.1907563 63.96935,41.1838014 L63.96935,64.9193836 C63.96935,67.3844671 65.9989154,69.3726318 68.4686599,69.2842597 C70.821092,69.2000365 72.6512883,67.1828294 72.6512883,64.8144159 L72.6512883,19.4471709 L74.1287228,23.0606767 C74.3414932,23.5813668 74.6827093,24.0389931 75.1197957,24.3906145 L82.9659093,30.7021659 C81.9560747,31.7308917 81.3311648,33.1431856 81.3311648,34.6998621 L81.3311648,67.5628709 C81.3311648,68.4077994 81.977929,69.1444409 82.8174648,69.1697494 C83.6858648,69.1958876 84.398192,68.4953417 84.398192,67.6273867 L84.398192,34.7762023 C84.398192,33.4201264 85.3962747,32.2329116 86.7382537,32.1057471 C88.2781586,31.9597049 89.5778722,33.1799036 89.5778722,34.6996547 L89.5778722,38.5782768 C89.5778722,39.4232052 90.2246364,40.1598468 91.0641722,40.1851552 C91.9325722,40.2112935 92.6448994,39.5107476 92.6448994,38.643 L92.6448994,34.6998621 C92.6455179,32.2090553 91.0464414,30.0883325 88.8276093,29.3184996" mask="url(#direitoprevidenciario-b)"/>
      </g>
    </g>
  </g>
</svg>
