<?xml version="1.0" encoding="UTF-8" standalone="no"?>
<svg width="170px" height="170px" viewBox="0 0 170 170" version="1.1" xmlns="http://www.w3.org/2000/svg" xmlns:xlink="http://www.w3.org/1999/xlink">
    <!-- Generator: Sketch 46 (44423) - http://www.bohemiancoding.com/sketch -->
    <title>Icone cards</title>
    <desc>Created with Sketch.</desc>
    <defs>
        <polygon id="path-1" points="19.3076859 0.0754079472 0 0.0754079472 0 38.5152591 38.6153718 38.5152591 38.6153718 0.0754079472 19.3076859 0.0754079472"></polygon>
        <polygon id="path-3" points="29.1998189 43.1788912 29.1998189 0.0157309877 0.112590922 0.0157309877 0.112590922 43.1788912 29.1998189 43.1788912"></polygon>
        <polygon id="path-5" points="0.0085023147 26.287037 64.9093622 26.287037 64.9093622 0.0573874437 0.0085023147 0.0573874437"></polygon>
    </defs>
    <g id="Symbols" stroke="none" stroke-width="1" fill="none" fill-rule="evenodd">
        <g id="Card-maior" transform="translate(-200.000000, -53.000000)">
            <g id="Icone-cards/família-Copy-6" transform="translate(202.000000, 55.000000)">
                <path d="M24.8105607,166.003117 L166.003117,166.003117 L166.003117,0.211161183 L0.211161183,0.211161183 L0.211161183,141.403718 C0.211161183,154.989211 11.2228828,166.003117 24.8105607,166.003117 Z" id="Page-1" stroke="#102E50" stroke-width="3"></path>
                <g id="Page-1" stroke-width="1" fill-rule="evenodd" transform="translate(44.842593, 43.296296)">
                    <path d="M40.2037037,17.0092593 C40.1238387,15.170266 38.5988925,15.4831272 37.1111111,15.4831272 C38.2102427,15.8439084 39.2499369,16.3458507 40.2037037,17.0092593" id="Fill-1" fill="#102E50"></path>
                    <path d="M20.0588364,12.3703704 C12.8613337,12.3703704 9.54842958,21.6299532 15.3021617,26.287037 C17.263594,20.9637493 21.168229,17.1414651 26.287037,15.6327829 C24.8867881,13.6652196 22.6244813,12.3703704 20.0588364,12.3703704" id="Fill-3" fill="#102E50"></path>
                    <g id="Group-7">
                        <mask id="mask-2" fill="white">
                            <use xlink:href="#path-1"></use>
                        </mask>
                        <g id="Clip-6"></g>
                        <path d="M5.2623876,25.8384031 C5.57338818,26.8318811 5.97650484,27.7849682 6.45519499,28.6879567 L3.94820988,31.1849132 C3.27501376,31.8550905 3.27501376,32.9428718 3.94820988,33.6144359 L8.3668212,38.0146197 C8.68879213,38.3349734 9.1295214,38.5152591 9.58923111,38.5152591 C10.0435427,38.5152591 10.48166,38.3349734 10.809029,38.0146197 L13.3128798,35.5176632 C13.6888317,35.7156307 14.1051825,35.8369768 14.4945427,36.0077282 C14.4945427,35.9792985 14.4915824,35.9498287 14.4915824,35.9213991 C14.4915824,33.8808773 14.7271836,31.9559811 15.1463205,30.148444 C12.1228585,28.2114132 10.1055339,24.8490855 10.1055339,21.0102143 C10.1055339,15.0136356 15.0054473,10.134308 21.0276445,10.134308 C25.1054786,10.134308 28.6264371,12.3942929 30.5058488,15.6961209 C32.512203,15.4484014 34.3970128,15.4484014 36.6659589,15.8751931 C36.3739387,14.9963004 36.0305495,14.1361298 35.6006164,13.3298715 L38.1072533,10.8317015 C38.4342741,10.509961 38.6153718,10.0724215 38.6153718,9.61754692 C38.6153718,9.16249896 38.4342741,8.72513287 38.1072533,8.40339229 L33.691254,4.00598219 C33.3532628,3.66950673 32.9123594,3.50256913 32.4718043,3.50256913 C32.0309009,3.50256913 31.5899975,3.66950673 31.2547925,4.00598219 L28.7397973,6.50415213 C27.8313482,6.0250083 26.876754,5.6238727 25.8765372,5.32102745 L25.8765372,1.79158881 C25.8765372,0.844048954 25.1084389,0.0754079472 24.1536705,0.0754079472 L17.9045787,0.0754079472 C16.9552085,0.0754079472 16.178926,0.844048954 16.178926,1.79158881 L16.178926,5.32085409 C15.181147,5.62369934 14.2265528,6.02483495 13.3151435,6.50397878 L10.809029,4.00858246 C10.4706896,3.672107 10.0299604,3.50516941 9.58923111,3.50516941 C9.1483277,3.50516941 8.70516058,3.672107 8.36978145,4.00719565 L3.94820988,8.40460575 C3.62641308,8.72773314 3.44531532,9.16371242 3.44531532,9.62014719 C3.44531532,10.0764086 3.62641308,10.5125612 3.94820988,10.8343018 L6.45519499,13.331085 C5.97633071,14.2356336 5.57338818,15.1873339 5.26795983,16.1806386 L1.72540895,16.1806386 C0.770814773,16.1806386 -6.96529863e-05,16.9504931 -6.96529863e-05,17.8994197 L-6.96529863e-05,24.1208354 C-6.96529863e-05,25.0669885 0.770814773,25.8384031 1.72540895,25.8384031 L5.2623876,25.8384031 Z" id="Fill-5" fill="#102E50" mask="url(#mask-2)"></path>
                    </g>
                    <path d="M59.974813,58.7592593 C62.9210998,57.3552362 64.9444444,54.6678345 64.9444444,51.5491453 C64.9444444,46.9980462 60.6813129,43.2962963 55.4434491,43.2962963 C53.6014629,43.2962963 51.8946139,43.7746803 50.4359495,44.5661267 C49.56257,47.586752 48.1876237,50.4760879 46.3888889,52.9857488 C51.4879031,53.8186465 56.1666556,55.8362139 59.974813,58.7592593" id="Fill-8" fill="#102E50"></path>
                    <g id="Group-12" transform="translate(49.481481, 27.833333)">
                        <mask id="mask-4" fill="white">
                            <use xlink:href="#path-3"></use>
                        </mask>
                        <g id="Clip-11"></g>
                        <path d="M29.1965648,20.0287223 C29.1965648,18.9627315 28.304205,18.0996919 27.2097208,18.0996919 L23.1268821,18.0996919 C22.7745125,16.9831887 22.3066697,15.9130486 21.7523617,14.89757 L24.6427222,12.0934132 C25.0181492,11.7318892 25.2258521,11.241739 25.2258521,10.7304819 C25.2258521,10.2190444 25.0179633,9.72871386 24.6427222,9.36610738 L19.5544679,4.42834519 C19.167698,4.0513066 18.6565297,3.86224611 18.1487084,3.86224611 C17.6403292,3.86224611 17.13195,4.0513066 16.7451802,4.42834519 L13.8490554,7.23394519 C12.8034752,6.6959887 11.7034127,6.24516602 10.5483097,5.90456849 L10.5483097,1.94331818 C10.5483097,0.878770494 9.66152839,0.0157309877 8.56425501,0.0157309877 L1.36550196,0.0157309877 C0.883155386,0.0157309877 0.458638332,0.203348272 0.112590922,0.48080537 C0.718778217,2.62667806 1.0508796,4.95349318 1.0508796,7.43563377 C1.0508796,9.01143855 0.923877784,10.6114171 0.687167223,12.2023756 C2.02691552,11.7232299 3.45331514,11.4223206 4.9637628,11.4223206 C11.8417572,11.4223206 17.4382048,16.8504134 17.4382048,23.5218315 C17.4382048,27.7859754 15.1425028,31.5231674 11.6976483,33.6789622 C14.2040282,36.346014 16.1966365,39.5102517 17.4932451,43.0554967 C17.7065263,43.1269356 17.928919,43.1788912 18.1514976,43.1788912 C18.6595048,43.1788912 19.167884,42.9912739 19.557629,42.6142353 L24.6486725,37.6764731 C25.0214963,37.314949 25.226224,36.8247989 25.226224,36.3135418 C25.226224,35.8022847 25.0214963,35.3121345 24.6486725,34.9491673 L21.7525476,32.1435673 C22.3068557,31.1295319 22.7746984,30.059031 23.127068,28.9414453 L27.2099068,28.9414453 C27.735579,28.9414453 28.2467474,28.7397568 28.6164101,28.3753463 C28.9890479,28.0152654 29.1999118,27.5238524 29.1999118,27.0124149 L29.1965648,20.0287223 Z" id="Fill-10" fill="#102E50" mask="url(#mask-4)"></path>
                    </g>
                    <g id="Group-15" transform="translate(1.546296, 57.212963)">
                        <mask id="mask-6" fill="white">
                            <use xlink:href="#path-5"></use>
                        </mask>
                        <g id="Clip-14"></g>
                        <path d="M63.0460847,15.5130995 C60.1080122,6.83695639 52.3449391,0.869621365 43.3834906,0.0573874437 C40.3825971,3.24699968 36.6671378,5.27056869 32.4593749,5.27056869 C28.2549742,5.27056869 24.5368605,3.2471773 21.5386215,0.0573874437 C12.5718642,0.869621365 4.80826016,6.83695639 1.87054157,15.5145205 L0.246576536,20.3124376 C-0.217944354,21.6930398 0.00449479261,23.2143133 0.850896094,24.3988285 C1.6972974,25.5836989 3.06042289,26.2870548 4.51149767,26.2870548 L60.4047747,26.2870548 C61.8586808,26.2870548 63.2216294,25.5836989 64.0682076,24.3988285 C64.9119545,23.2143133 65.137225,21.6930398 64.6700497,20.3124376 L63.0460847,15.5130995 Z" id="Fill-13" fill="#102E50" mask="url(#mask-6)"></path>
                    </g>
                    <path d="M20.1018519,36.6780167 C20.1018519,47.3296763 26.6803419,58.7592593 34.7902398,58.7592593 C42.9033482,58.7592593 49.4814815,47.3296763 49.4814815,36.6780167 C49.4816598,14.5983563 20.1018519,14.5545817 20.1018519,36.6780167" id="Fill-16" fill="#102E50"></path>
                </g>
            </g>
        </g>
    </g>
</svg>