<svg xmlns="http://www.w3.org/2000/svg" xmlns:xlink="http://www.w3.org/1999/xlink" width="170" height="170" viewBox="0 0 170 170">
  <defs>
    <polygon id="direitoempresarial-a" points=".853 .184 38.462 .184 38.462 50.494 .853 50.494"/>
    <polygon id="direitoempresarial-c" points="0 .769 0 47.935 77.025 47.935 77.025 .769"/>
  </defs>
  <g fill="none" fill-rule="evenodd" transform="translate(2 2)">
    <path stroke="#102E50" stroke-width="3" d="M24.8105607,166.003117 L166.003117,166.003117 L166.003117,0.211161183 L0.211161183,0.211161183 L0.211161183,141.403718 C0.211161183,154.989211 11.2228828,166.003117 24.8105607,166.003117 Z"/>
    <g transform="translate(44.843 35.565)">
      <g transform="translate(18.556)">
        <mask id="direitoempresarial-b" fill="#fff">
          <use xlink:href="#direitoempresarial-a"/>
        </mask>
        <path fill="#102E50" d="M1.42636405,29.7697945 C1.75259485,31.276059 2.25419828,32.2512565 2.83877371,32.85981 C4.22949752,42.5617025 12.9179855,50.8300924 19.8970619,50.4832925 C28.7750655,50.0467215 35.06868,40.4582241 36.4810897,32.85981 C37.0656651,32.2550363 37.6285547,30.9632776 37.9660998,29.4456737 C38.3432453,27.7022246 38.7496195,25.075239 37.7049266,23.6852045 C37.6426976,23.6124427 37.2429234,23.2448537 37.1740944,23.1824864 C38.1725869,19.5727436 40.3656877,13.1319041 34.9046217,7.34214126 C31.9449729,4.20487788 27.8350305,2.62868652 24.1201479,1.38417572 C13.1537014,-2.2869894 5.41373419,2.86209136 1.8393383,11.4243635 C1.58193654,12.031972 -0.0850462963,15.8788995 1.93456752,23.1824864 C1.7384519,23.3138357 1.56025068,23.4810934 1.41127823,23.6852045 C0.361871048,25.0714592 1.04450429,28.0263455 1.42636405,29.7697945" mask="url(#direitoempresarial-b)"/>
      </g>
      <g transform="translate(0 47.935)">
        <mask id="direitoempresarial-d" fill="#fff">
          <use xlink:href="#direitoempresarial-c"/>
        </mask>
        <path fill="#102E50" d="M76.9972584,36.4012127 C76.6927134,29.6260536 76.3146251,18.8895308 70.4943281,10.1058875 C70.4943281,10.1058875 68.8348882,7.8059573 64.8984327,6.27778359 C64.8984327,6.27778359 56.3513742,3.62984396 52.4149187,0.769072111 L50.6168778,2.02018044 L50.8167649,13.9013954 L40.0256911,43.1945871 C39.7890323,43.8369186 39.1865425,44.2616243 38.5152236,44.2616243 C37.8439047,44.2616243 37.240472,43.8369186 37.0047561,43.1945871 L26.2165108,13.9013954 C26.2165108,13.9013954 26.4163979,2.05756989 26.4126265,2.02018044 C26.4380838,2.11988563 24.6108141,0.769072111 24.6108141,0.769072111 C20.6819015,3.62984396 12.1310716,6.27778359 12.1310716,6.27778359 C8.19461608,7.8059573 6.53611902,10.1058875 6.53611902,10.1058875 C0.719593496,18.8895308 0.333962285,29.6260536 0.0284744806,36.4012127 C-0.180841238,41.0825629 0.784651084,42.829321 1.99717367,43.3278469 C17.0518767,49.4712203 59.9672561,49.4712203 75.0257306,43.3278469 C76.2457961,42.8321971 77.2046883,41.0825629 76.9972584,36.4012127" mask="url(#direitoempresarial-d)"/>
      </g>
      <path fill="#102E50" d="M39.059237,54.9752286 L38.5869271,54.9858901 C37.0638191,54.9858901 35.5278965,54.6728297 34.0185185,54.1203704 L38.1704522,60.8506825 L34.445062,64.6578061 L38.2802917,89.3188174 C38.3123283,89.5320473 38.4844102,89.6851852 38.6894439,89.6851852 C38.889901,89.6851852 39.0628983,89.5320473 39.0985961,89.3188174 L42.9329106,64.6578061 L39.203859,60.8506825 L43.2962963,54.22117 C41.9608308,54.6350299 40.5466471,54.9122288 39.059237,54.9752286"/>
    </g>
  </g>
</svg>
