<svg xmlns="http://www.w3.org/2000/svg" xmlns:xlink="http://www.w3.org/1999/xlink" width="170" height="170" viewBox="0 0 170 170">
  <defs>
    <polygon id="direitocivil-a" points="93.066 0 0 0 0 92.82 93.066 92.82 93.066 0"/>
  </defs>
  <g fill="none" fill-rule="evenodd" transform="translate(2 2)">
    <path stroke="#102E50" stroke-width="3" d="M24.8105607,166.003117 L166.003117,166.003117 L166.003117,0.211161183 L0.211161183,0.211161183 L0.211161183,141.403718 C0.211161183,154.989211 11.2228828,166.003117 24.8105607,166.003117 Z"/>
    <g transform="translate(37.111 35.565)">
      <mask id="direitocivil-b" fill="#fff">
        <use xlink:href="#direitocivil-a"/>
      </mask>
      <path fill="#102E50" d="M27.8419514,57.0274967 L17.8960018,30.6880231 L7.95005218,57.0274967 L27.8419514,57.0274967 Z M17.8960018,69.7507663 C9.61015588,69.7507663 2.62179004,64.418312 -0.000419218107,57.0274967 L4.12678305,57.0274967 L16.2191293,24.9929451 C16.7410559,23.5927566 19.0509477,23.5927566 19.5749703,24.9929451 L31.6673166,57.0274967 L35.7924228,57.0274967 C33.1723096,64.418312 26.1818477,69.7507663 17.8960018,69.7507663 L17.8960018,69.7507663 Z M17.8960018,21.287057 C19.5204719,21.287057 20.8305285,20.1866095 21.3063411,18.7193461 C22.4717674,18.2812632 23.6979804,17.6692048 24.938866,17.0424737 C27.6868407,15.659054 30.7764781,14.08489 34.0107458,14.08489 C37.1045754,14.08489 39.0287865,15.520712 40.127138,16.7238679 C40.0936005,17.0424737 40.0391022,17.3359264 40.0391022,17.6692048 C40.0391022,21.2514235 42.9421876,24.1503167 46.5223102,24.1503167 C50.106625,24.1503167 53.0285752,21.2514235 53.0285752,17.6692048 C53.0285752,17.3359264 52.9740769,17.0424737 52.9195785,16.7238679 C54.020026,15.520712 55.963102,14.08489 59.0548355,14.08489 C62.2891032,14.08489 65.3808367,15.659054 68.1288114,17.0424737 C69.3676009,17.6692048 70.5707569,18.2812632 71.7613363,18.7193461 C72.2182841,20.1866095 73.5472055,21.287057 75.1695795,21.287057 C77.1608656,21.287057 78.7853357,19.664683 78.7853357,17.6692048 C78.7853357,15.659054 77.1608656,14.0534486 75.1695795,14.0534486 C74.1362069,14.0534486 73.211831,14.4873393 72.5662351,15.1895297 C71.6753966,14.8227138 70.7132911,14.3301326 69.7344168,13.8417435 C66.6426833,12.2675795 63.1254433,10.5047673 59.0548355,10.5047673 C55.4872894,10.5047673 53.0097104,11.8651301 51.332838,13.3198169 C50.5635728,12.4960533 49.6014672,11.8651301 48.4989236,11.5171791 C49.8467098,10.8003161 50.7710857,9.43576115 50.7710857,7.81129099 C50.7710857,5.47205395 46.5223102,-0.000838436214 46.5223102,-0.000838436214 C46.5223102,-0.000838436214 42.2944956,5.47205395 42.2944956,7.81129099 C42.2944956,9.43576115 43.2209676,10.8003161 44.5666577,11.5171791 C43.4662102,11.8651301 42.4852398,12.4960533 41.7348394,13.3198169 C40.0558709,11.8651301 37.5740997,10.5047673 34.0107458,10.5047673 C29.9233693,10.5047673 26.4228981,12.2675795 23.3332606,13.8417435 C22.3355215,14.3301326 21.3901847,14.8227138 20.5014423,15.1895297 C19.8558464,14.4873393 18.9251822,14.0534486 17.8960018,14.0534486 C15.9068119,14.0534486 14.2760534,15.659054 14.2760534,17.6692048 C14.2760534,19.664683 15.9068119,21.287057 17.8960018,21.287057 L17.8960018,21.287057 Z M85.111337,57.0274967 L75.1695795,30.6880231 L65.22363,57.0274967 L85.111337,57.0274967 Z M93.0660005,57.0274967 C90.4437913,64.418312 83.4512333,69.7507663 75.1695795,69.7507663 C66.8837337,69.7507663 59.8953678,64.418312 57.2731586,57.0274967 L61.3982647,57.0274967 L73.4927071,24.9929451 C74.0146337,23.5927566 76.3245254,23.5927566 76.8485481,24.9929451 L88.9241256,57.0274967 L93.0660005,57.0274967 Z M68.003046,89.2548887 L68.003046,92.8203387 L25.0646314,92.8203387 L25.0646314,89.2548887 C25.0646314,87.2824675 26.6702367,85.6705739 28.6258892,85.6705739 L35.8469211,85.6705739 C36.0397614,81.1975167 38.9197898,77.4748599 42.9610524,76.0432301 L42.9610524,34.0794976 C41.0724748,32.8931103 39.7980518,30.7949237 39.7980518,28.4011883 L53.2507608,28.4011883 C53.2507608,30.7949237 51.9931065,32.8931103 50.106625,34.0794976 L50.106625,76.0432301 C54.1290228,77.4748599 57.027916,81.1975167 57.2207563,85.6705739 L64.4187312,85.6705739 C66.3974407,85.6705739 68.003046,87.2824675 68.003046,89.2548887 L68.003046,89.2548887 Z" mask="url(#direitocivil-b)"/>
    </g>
  </g>
</svg>
