<?xml version="1.0" encoding="UTF-8" standalone="no"?>
<svg width="15px" height="12px" viewBox="0 0 15 12" version="1.1" xmlns="http://www.w3.org/2000/svg" xmlns:xlink="http://www.w3.org/1999/xlink">
    <!-- Generator: Sketch 46 (44423) - http://www.bohemiancoding.com/sketch -->
    <title>email - material</title>
    <desc>Created with Sketch.</desc>
    <defs></defs>
    <g id="Symbols" stroke="none" stroke-width="1" fill="none" fill-rule="evenodd">
        <g id="Profissionais-renata-aberto" transform="translate(-26.000000, -323.000000)" fill="#FFFFFF">
            <path d="M39.178,326.228 L39.178,324.8 L33.5,328.353 L27.822,324.8 L27.822,326.228 L33.5,329.747 L39.178,326.228 Z M39.178,323.372 C39.5633353,323.372 39.8919986,323.513665 40.164,323.797 C40.4360014,324.080335 40.572,324.414665 40.572,324.8 L40.572,333.3 C40.572,333.685335 40.4360014,334.019665 40.164,334.303 C39.8919986,334.586335 39.5633353,334.728 39.178,334.728 L27.822,334.728 C27.4366647,334.728 27.1080014,334.586335 26.836,334.303 C26.5639986,334.019665 26.428,333.685335 26.428,333.3 L26.428,324.8 C26.428,324.414665 26.5639986,324.080335 26.836,323.797 C27.1080014,323.513665 27.4366647,323.372 27.822,323.372 L39.178,323.372 Z" id="email---material"></path>
        </g>
    </g>
</svg>