<?xml version="1.0" encoding="UTF-8" standalone="no"?>
<svg width="107px" height="107px" viewBox="0 0 107 107" version="1.1" xmlns="http://www.w3.org/2000/svg" xmlns:xlink="http://www.w3.org/1999/xlink">
    <!-- Generator: Sketch 46 (44423) - http://www.bohemiancoding.com/sketch -->
    <title>Logotipo</title>
    <desc>Created with Sketch.</desc>
    <defs>
        <polygon id="path-1" points="0 142.925234 141.932346 142.925234 141.932346 0.744755245 0 0.744755245"></polygon>
    </defs>
    <g id="Symbols" stroke="none" stroke-width="1" fill="none" fill-rule="evenodd">
        <g id="Header-Aberto" transform="translate(-146.000000, -36.000000)">
            <g id="Page-1" transform="translate(129.000000, 18.000000)">
                <g id="Logotipo">
                    <path d="M51.2912921,113.506359 L53.3008524,113.506359 L52.296444,111.141017 L51.2912921,113.506359 Z M49.7917424,115.455384 L52.3038785,109.687255 L54.8241927,115.455384 L54.1461613,115.455384 L53.548423,114.08131 L51.0437215,114.08131 L50.4459832,115.455384 L49.7917424,115.455384 Z" id="Fill-4" fill="#002D50"></path>
                    <path d="M51.5159644,113.357259 L53.0764775,113.357259 L52.2958492,111.521438 L51.5159644,113.357259 Z M53.5255246,113.655162 L51.0669173,113.655162 L52.2958492,110.761043 L53.5255246,113.655162 Z M54.2437026,115.306284 L54.596844,115.306284 L52.3047707,110.058738 L50.0193885,115.306284 L50.3487393,115.306284 L50.9464775,113.93221 L53.6452209,113.93221 L54.2437026,115.306284 Z M55.0510953,115.604931 L54.0489173,115.604931 L53.4511791,114.230857 L51.1412628,114.230857 L50.5427812,115.604931 L49.5643937,115.604931 L52.3040272,109.315473 L55.0510953,115.604931 Z" id="Fill-6" fill="#002D50"></path>
                    <path d="M59.3357037,114.880209 L60.4598084,114.880209 C61.9593581,114.880209 62.7489079,114.017783 62.7489079,112.674989 C62.7489079,111.325493 61.9593581,110.462321 60.4516304,110.462321 L59.3357037,110.462321 L59.3357037,114.880209 Z M58.7134314,115.45516 L58.7134314,109.88737 L60.499955,109.88737 C61.3854105,109.88737 62.0872325,110.142821 62.5972429,110.653723 C63.1154314,111.16537 63.3711801,111.836395 63.3711801,112.674989 C63.3711801,113.514328 63.1154314,114.184608 62.6054209,114.696255 C62.094667,115.200454 61.3935885,115.45516 60.508133,115.45516 L58.7134314,115.45516 Z" id="Fill-8" fill="#002D50"></path>
                    <path d="M59.4845435,114.731109 L60.4599571,114.731109 C61.8204806,114.731109 62.599622,113.981886 62.599622,112.67484 C62.599622,111.364071 61.8175068,110.611868 60.4517791,110.611868 L59.4845435,110.611868 L59.4845435,114.731109 Z M60.4599571,115.029012 L59.1871613,115.029012 L59.1871613,110.313221 L60.4517791,110.313221 C61.9832974,110.313221 62.8977476,111.196501 62.8977476,112.67484 C62.8977476,114.149456 61.9862712,115.029012 60.4599571,115.029012 L60.4599571,115.029012 Z M58.8622712,115.30606 L60.5075382,115.30606 C61.3491298,115.30606 62.0197267,115.065505 62.5007424,114.590351 C62.9862188,114.104026 63.2218942,113.476942 63.2218942,112.67484 C63.2218942,111.870505 62.9839885,111.243421 62.4933079,110.760074 C62.0130356,110.278963 61.3431822,110.036172 60.5001037,110.036172 L58.8622712,110.036172 L58.8622712,115.30606 Z M60.5075382,115.604707 L58.564889,115.604707 L58.564889,109.73827 L60.5001037,109.73827 C61.4249623,109.73827 62.165444,110.010851 62.7029623,110.548564 C63.2449414,111.083298 63.5200199,111.798263 63.5200199,112.67484 C63.5200199,113.548438 63.2479152,114.263403 62.7103969,114.801861 C62.1706482,115.335106 61.4301665,115.604707 60.5075382,115.604707 L60.5075382,115.604707 Z" id="Fill-10" fill="#002D50"></path>
                    <polygon id="Fill-12" fill="#002D50" points="68.9987665 115.6555 66.6063267 109.88737 67.2761801 109.88737 68.9987665 114.07364 70.7213529 109.88737 71.3912063 109.88737"></polygon>
                    <path d="M66.829066,110.036396 L68.9984691,115.266812 L71.1678723,110.036396 L70.8206785,110.036396 L68.9984691,114.463966 L67.1762597,110.036396 L66.829066,110.036396 Z M68.9984691,116.043592 L66.3829927,109.738494 L67.3755058,109.738494 L68.9984691,113.682717 L70.6221759,109.738494 L71.6139455,109.738494 L68.9984691,116.043592 Z" id="Fill-14" fill="#002D50"></path>
                    <path d="M75.2157644,112.675064 C75.2157644,113.338641 75.4313665,113.897952 75.8618272,114.336613 C76.300466,114.776018 76.842445,114.991997 77.4966859,114.991997 C78.1509267,114.991997 78.6929058,114.776018 79.1233665,114.336613 C79.5538272,113.897952 79.7694293,113.338641 79.7694293,112.675064 C79.7694293,112.012231 79.5538272,111.461113 79.1233665,111.021707 C78.6929058,110.582301 78.1509267,110.358875 77.4966859,110.358875 C76.842445,110.358875 76.300466,110.582301 75.8618272,111.021707 C75.4313665,111.461113 75.2157644,112.012231 75.2157644,112.675064 M74.6016702,112.675064 C74.6016702,111.852854 74.880466,111.165445 75.438801,110.613581 C76.0053141,110.063207 76.6907801,109.783179 77.4966859,109.783179 C78.3018482,109.783179 78.9880576,110.063207 79.5463927,110.613581 C80.1121623,111.165445 80.3917016,111.852854 80.3917016,112.675064 C80.3917016,113.498018 80.1121623,114.192875 79.5463927,114.743994 C78.9880576,115.295857 78.3018482,115.567693 77.4966859,115.567693 C76.6907801,115.567693 76.0053141,115.295857 75.438801,114.743994 C74.880466,114.192875 74.6016702,113.498018 74.6016702,112.675064" id="Fill-16" fill="#002D50"></path>
                    <path d="M77.4966115,110.507677 C76.8832607,110.507677 76.3829152,110.71025 75.9673236,111.127313 C75.5613969,111.540652 75.3643812,112.046341 75.3643812,112.674915 C75.3643812,113.300509 75.5673445,113.824072 75.968067,114.232198 C76.377711,114.643303 76.8780565,114.842897 77.4966115,114.842897 C78.1166534,114.842897 78.6140251,114.644048 79.0177215,114.232198 C79.4177005,113.824072 79.6206639,113.299764 79.6206639,112.674915 C79.6206639,112.055278 79.4177005,111.534694 79.0177215,111.125824 C78.6147686,110.715464 78.1032712,110.507677 77.4966115,110.507677 M77.4966115,115.141544 C76.8051979,115.141544 76.2200984,114.905457 75.7569257,114.442219 C75.2989571,113.975257 75.066999,113.380943 75.066999,112.674915 C75.066999,111.974845 75.2989571,111.383509 75.7561822,110.917292 C76.2253026,110.447352 76.8104021,110.209775 77.4966115,110.209775 C78.1857948,110.209775 78.7686639,110.448097 79.2296063,110.917292 C79.6868314,111.383509 79.9180461,111.974845 79.9180461,112.674915 C79.9180461,113.380943 79.6868314,113.975257 79.2296063,114.440729 C78.7738681,114.905457 78.190999,115.141544 77.4966115,115.141544 M77.4966115,109.932726 C76.7382869,109.932726 76.0810723,110.197859 75.5428105,110.720677 C75.0171874,111.239027 74.7510304,111.896645 74.7510304,112.674915 C74.7510304,113.458397 75.0171874,114.118995 75.5435539,114.63809 C76.0825592,115.163142 76.7219309,115.418593 77.4966115,115.418593 C78.2631141,115.418593 78.917355,115.155694 79.4414911,114.63809 C79.9738052,114.120485 80.2429361,113.459887 80.2429361,112.674915 C80.2429361,111.884729 79.9812398,111.244985 79.442978,110.720677 C78.9114073,110.197114 78.2571665,109.932726 77.4966115,109.932726 M77.4966115,115.716495 C76.6527895,115.716495 75.9256901,115.425296 75.3353864,114.85109 C74.7495435,114.273159 74.4529047,113.541065 74.4529047,112.674915 C74.4529047,111.814722 74.7495435,111.084862 75.3346429,110.507677 C75.9308942,109.928257 76.6579937,109.634079 77.4966115,109.634079 C78.3382031,109.634079 79.0623288,109.928257 79.6504021,110.507677 C80.2407058,111.081883 80.5403183,111.811743 80.5403183,112.674915 C80.5403183,113.543299 80.2407058,114.276138 79.6496586,114.85109 C79.0682764,115.425296 78.3441508,115.716495 77.4966115,115.716495" id="Fill-18" fill="#002D50"></path>
                    <path d="M88.5801948,110.310615 L88.5801948,111.013664 C88.117022,110.574258 87.5594304,110.358279 86.9133675,110.358279 C86.2591267,110.358279 85.7171476,110.58245 85.2866869,111.021856 C84.8554827,111.461262 84.6406241,112.01238 84.6406241,112.675213 C84.6406241,113.338045 84.8554827,113.897356 85.2866869,114.336762 C85.7171476,114.776167 86.2591267,114.992146 86.9133675,114.992146 C87.5118492,114.992146 88.0136817,114.799999 88.4367079,114.424643 L88.4367079,112.994713 L86.737912,112.994713 L86.737912,112.419762 L89.0589801,112.419762 L89.0589801,114.648814 C88.500645,115.263237 87.782467,115.567842 86.9133675,115.567842 C86.1074618,115.567842 85.4219958,115.295262 84.8554827,114.744143 C84.2971476,114.193024 84.0183518,113.498167 84.0183518,112.675213 C84.0183518,111.852258 84.2971476,111.164849 84.8554827,110.61373 C85.4219958,110.063356 86.1074618,109.783328 86.9133675,109.783328 C87.5594304,109.783328 88.117022,109.95909 88.5801948,110.310615" id="Fill-20" fill="#002D50"></path>
                    <path d="M86.9132188,109.932428 C86.1548942,109.932428 85.4976796,110.197561 84.9594178,110.721124 C84.4337948,111.239473 84.1676377,111.897092 84.1676377,112.675362 C84.1676377,113.458099 84.4337948,114.118697 84.9601613,114.637792 C85.4991665,115.162844 86.1385382,115.418295 86.9132188,115.418295 C87.7191246,115.418295 88.3904649,115.139757 88.9101403,114.590872 L88.9101403,112.568862 L86.8864545,112.568862 L86.8864545,112.84591 L88.5852503,112.84591 L88.5852503,114.49182 L88.5354387,114.536505 C88.0834178,114.937928 87.5377215,115.141246 86.9132188,115.141246 C86.2188314,115.141246 85.6359623,114.905903 85.1802241,114.441176 C84.7237424,113.975704 84.4917843,113.38139 84.4917843,112.675362 C84.4917843,111.974547 84.7237424,111.383211 85.1802241,110.916994 C85.6411665,110.447799 86.2240356,110.209477 86.9132188,110.209477 C87.486423,110.209477 87.9956901,110.372578 88.431355,110.694313 L88.431355,110.385984 C88.0083288,110.085103 87.4975749,109.932428 86.9132188,109.932428 M86.9132188,115.716942 C86.0693969,115.716942 85.3422974,115.424998 84.7519937,114.850792 C84.1661508,114.272862 83.869512,113.541512 83.869512,112.675362 C83.869512,111.814424 84.1661508,111.085309 84.7512503,110.507379 C85.3475016,109.927959 86.074601,109.634526 86.9132188,109.634526 C87.5912503,109.634526 88.1830408,109.822204 88.6700042,110.192348 L88.7287372,110.236288 L88.7287372,111.360124 L88.4774492,111.122547 C88.0484754,110.714421 87.5221089,110.507379 86.9132188,110.507379 C86.3065592,110.507379 85.7950618,110.71591 85.3928524,111.126271 C84.9861822,111.540355 84.7891665,112.046788 84.7891665,112.675362 C84.7891665,113.300211 84.9921298,113.824519 85.3928524,114.2319 C85.7958052,114.64375 86.293177,114.843344 86.9132188,114.843344 C87.4477634,114.843344 87.8975539,114.683966 88.2878681,114.356274 L88.2878681,113.143813 L86.5890723,113.143813 L86.5890723,112.270959 L89.2075225,112.270959 L89.2075225,114.706309 L89.1688628,114.749505 C88.5859937,115.390739 87.8269257,115.716942 86.9132188,115.716942" id="Fill-22" fill="#002D50"></path>
                    <path d="M94.1202021,113.506359 L96.1297623,113.506359 L95.1253539,111.141017 L94.1202021,113.506359 Z M92.6206524,115.455384 L95.1327885,109.687255 L97.6531026,115.455384 L96.9750712,115.455384 L96.377333,114.08131 L93.8726314,114.08131 L93.2748932,115.455384 L92.6206524,115.455384 Z" id="Fill-24" fill="#002D50"></path>
                    <path d="M94.3448743,113.357259 L95.9053874,113.357259 L95.1247592,111.521438 L94.3448743,113.357259 Z M96.3544346,113.655162 L93.8958272,113.655162 L95.1247592,110.761043 L96.3544346,113.655162 Z M97.0726126,115.306284 L97.4257539,115.306284 L95.1336806,110.058738 L92.8482984,115.306284 L93.1776492,115.306284 L93.7753874,113.93221 L96.4741309,113.93221 L97.0726126,115.306284 Z M97.8800052,115.604931 L96.8778272,115.604931 L96.280089,114.230857 L93.9701728,114.230857 L93.3716911,115.604931 L92.3933037,115.604931 L95.1329372,109.315473 L97.8800052,115.604931 Z" id="Fill-26" fill="#002D50"></path>
                    <path d="M102.164614,114.880209 L103.288718,114.880209 C104.788268,114.880209 105.577818,114.017783 105.577818,112.674989 C105.577818,111.325493 104.788268,110.462321 103.28054,110.462321 L102.164614,110.462321 L102.164614,114.880209 Z M101.542341,115.45516 L101.542341,109.88737 L103.328865,109.88737 C104.21432,109.88737 104.916142,110.142821 105.426153,110.653723 C105.944341,111.16537 106.20009,111.836395 106.20009,112.674989 C106.20009,113.514328 105.944341,114.184608 105.434331,114.696255 C104.923577,115.200454 104.222498,115.45516 103.337043,115.45516 L101.542341,115.45516 Z" id="Fill-28" fill="#002D50"></path>
                    <path d="M102.313453,114.731109 L103.288867,114.731109 C104.649391,114.731109 105.428532,113.981886 105.428532,112.67484 C105.428532,111.364071 104.646417,110.611868 103.280689,110.611868 L102.313453,110.611868 L102.313453,114.731109 Z M103.288867,115.029012 L102.016071,115.029012 L102.016071,110.313221 L103.280689,110.313221 C104.812207,110.313221 105.726658,111.196501 105.726658,112.67484 C105.726658,114.149456 104.815181,115.029012 103.288867,115.029012 L103.288867,115.029012 Z M101.691181,115.30606 L103.336448,115.30606 C104.17804,115.30606 104.848637,115.065505 105.329652,114.590351 C105.815129,114.104026 106.050804,113.476942 106.050804,112.67484 C106.050804,111.870505 105.812898,111.243421 105.322218,110.760074 C104.841946,110.278963 104.172092,110.036172 103.329014,110.036172 L101.691181,110.036172 L101.691181,115.30606 Z M103.336448,115.604707 L101.393799,115.604707 L101.393799,109.73827 L103.329014,109.73827 C104.253872,109.73827 104.994354,110.010851 105.531872,110.548564 C106.073851,111.083298 106.34893,111.798263 106.34893,112.67484 C106.34893,113.548438 106.076825,114.263403 105.539307,114.801861 C104.999558,115.335106 104.259076,115.604707 103.336448,115.604707 L103.336448,115.604707 Z" id="Fill-30" fill="#002D50"></path>
                    <path d="M110.46351,112.675064 C110.46351,113.338641 110.679112,113.897952 111.109573,114.336613 C111.548212,114.776018 112.090191,114.991997 112.744431,114.991997 C113.398672,114.991997 113.940651,114.776018 114.371112,114.336613 C114.801573,113.897952 115.017175,113.338641 115.017175,112.675064 C115.017175,112.012231 114.801573,111.461113 114.371112,111.021707 C113.940651,110.582301 113.398672,110.358875 112.744431,110.358875 C112.090191,110.358875 111.548212,110.582301 111.109573,111.021707 C110.679112,111.461113 110.46351,112.012231 110.46351,112.675064 M109.849416,112.675064 C109.849416,111.852854 110.128212,111.165445 110.686547,110.613581 C111.25306,110.063207 111.938526,109.783179 112.744431,109.783179 C113.549594,109.783179 114.235803,110.063207 114.794138,110.613581 C115.359908,111.165445 115.639447,111.852854 115.639447,112.675064 C115.639447,113.498018 115.359908,114.192875 114.794138,114.743994 C114.235803,115.295857 113.549594,115.567693 112.744431,115.567693 C111.938526,115.567693 111.25306,115.295857 110.686547,114.743994 C110.128212,114.192875 109.849416,113.498018 109.849416,112.675064" id="Fill-32" fill="#002D50"></path>
                    <path d="M112.744283,110.507677 C112.130932,110.507677 111.630586,110.71025 111.214995,111.127313 C110.809068,111.540652 110.612052,112.046341 110.612052,112.674915 C110.612052,113.300509 110.815016,113.824072 111.215738,114.232198 C111.625382,114.643303 112.125728,114.842897 112.744283,114.842897 C113.365068,114.842897 113.86244,114.644048 114.265393,114.232943 C114.665372,113.824072 114.868335,113.299764 114.868335,112.674915 C114.868335,112.055278 114.665372,111.534694 114.265393,111.125824 C113.86244,110.715464 113.350942,110.507677 112.744283,110.507677 M112.744283,115.141544 C112.052869,115.141544 111.46777,114.905457 111.004597,114.442219 C110.546628,113.975257 110.31467,113.380943 110.31467,112.674915 C110.31467,111.974845 110.546628,111.383509 111.003853,110.917292 C111.472974,110.447352 112.058073,110.209775 112.744283,110.209775 C113.434209,110.209775 114.017079,110.448097 114.477277,110.918037 C114.934503,111.383509 115.165717,111.974845 115.165717,112.674915 C115.165717,113.380943 114.934503,113.975257 114.477277,114.440729 C114.022283,114.905457 113.439414,115.141544 112.744283,115.141544 M112.744283,109.932726 C111.985958,109.932726 111.328743,110.197859 110.790482,110.720677 C110.264859,111.239027 109.998702,111.896645 109.998702,112.674915 C109.998702,113.458397 110.264859,114.118995 110.791225,114.63809 C111.33023,115.163142 111.969602,115.418593 112.744283,115.418593 C113.510785,115.418593 114.165026,115.155694 114.689162,114.63809 C115.221476,114.120485 115.490607,113.459887 115.490607,112.674915 C115.490607,111.884729 115.228911,111.244985 114.690649,110.720677 C114.159079,110.197114 113.504838,109.932726 112.744283,109.932726 M112.744283,115.716495 C111.900461,115.716495 111.173361,115.425296 110.583058,114.85109 C109.997215,114.273159 109.700576,113.541065 109.700576,112.674915 C109.700576,111.814722 109.997215,111.084862 110.582314,110.507677 C111.178565,109.928257 111.905665,109.634079 112.744283,109.634079 C113.585874,109.634079 114.31,109.928257 114.898073,110.507677 C115.488377,111.081883 115.78799,111.811743 115.78799,112.674915 C115.78799,113.543299 115.488377,114.276138 114.89733,114.85109 C114.315948,115.425296 113.591822,115.716495 112.744283,115.716495" id="Fill-34" fill="#002D50"></path>
                    <path d="M119.17837,114.137614 C119.657155,114.704373 120.222925,114.991848 120.868987,114.991848 C121.642181,114.991848 122.073385,114.560635 122.073385,114.113782 C122.073385,113.801729 121.985658,113.562663 121.810202,113.394348 C121.642181,113.226034 121.315804,113.010799 120.837019,112.762796 C120.589448,112.635443 120.39838,112.531922 120.262328,112.444041 C120.127019,112.355415 119.983532,112.251894 119.831867,112.124541 C119.536715,111.860152 119.409584,111.557037 119.409584,111.148911 C119.409584,110.342341 120.055647,109.78303 121.076412,109.78303 C121.530663,109.78303 121.905364,109.911128 122.200516,110.166579 L122.200516,110.869628 C121.857783,110.526296 121.483082,110.358726 121.068234,110.358726 C120.422171,110.358726 120.031113,110.670034 120.031113,111.148911 C120.031113,111.381275 120.111406,111.565229 120.270506,111.708222 C120.438527,111.852705 120.717323,112.028467 121.10838,112.228062 C121.642181,112.491705 121.92172,112.666722 122.232485,112.978775 C122.551427,113.274443 122.694914,113.642352 122.694914,114.113782 C122.694914,114.504778 122.527637,114.839918 122.200516,115.136331 C121.873396,115.423806 121.451113,115.567544 120.916569,115.567544 C120.21549,115.567544 119.632621,115.343373 119.17837,114.903967 L119.17837,114.137614 Z" id="Fill-36" fill="#002D50"></path>
                    <path d="M119.327209,114.839471 C119.747262,115.22451 120.281806,115.418146 120.916717,115.418146 C121.412602,115.418146 121.800686,115.289303 122.102529,115.024171 C122.400654,114.754569 122.546372,114.455178 122.546372,114.113335 C122.546372,113.676164 122.41478,113.350706 122.131524,113.087807 C121.846037,112.802566 121.592518,112.632762 121.042361,112.361671 C120.649817,112.160587 120.358382,111.979611 120.174005,111.820978 C119.979963,111.64745 119.882571,111.42179 119.882571,111.149209 C119.882571,110.577982 120.347974,110.209328 121.068382,110.209328 C121.420037,110.209328 121.750131,110.322531 122.051974,110.544468 L122.051974,110.236884 C121.793251,110.035055 121.465387,109.932279 121.07656,109.932279 C120.153932,109.932279 119.558424,110.410412 119.558424,111.149209 C119.558424,111.520842 119.669942,111.780017 119.930895,112.013125 C120.062487,112.124094 120.197796,112.223891 120.343513,112.318475 C120.461723,112.395185 120.634948,112.492003 120.904822,112.630527 C121.391042,112.882255 121.730801,113.104192 121.915178,113.288891 C122.117398,113.483272 122.222225,113.761066 122.222225,114.113335 C122.222225,114.624237 121.757565,115.141097 120.869136,115.141097 C120.295188,115.141097 119.777743,114.928842 119.327209,114.51029 L119.327209,114.839471 Z M120.916717,115.716793 C120.179209,115.716793 119.559168,115.479216 119.075178,115.010765 L119.029827,114.967569 L119.029827,113.731276 L119.292267,114.041838 C119.741314,114.573594 120.272141,114.843195 120.869136,114.843195 C121.562037,114.843195 121.924099,114.476776 121.924099,114.113335 C121.924099,113.841499 121.853471,113.641905 121.70701,113.501891 C121.592518,113.387199 121.339743,113.191328 120.76877,112.89566 C120.486257,112.749688 120.310058,112.65138 120.18144,112.568713 C120.026058,112.467426 119.88034,112.359436 119.736853,112.238786 C119.41122,111.947587 119.261042,111.60202 119.261042,111.149209 C119.261042,110.242842 119.990372,109.634377 121.07656,109.634377 C121.56501,109.634377 121.976141,109.775136 122.298058,110.053674 L122.349356,110.098359 L122.349356,111.228898 L122.095838,110.975681 C121.781356,110.66065 121.445314,110.507975 121.068382,110.507975 C120.512277,110.507975 120.179953,110.747786 120.179953,111.149209 C120.179953,111.339122 120.240916,111.480625 120.370277,111.597552 C120.531607,111.736076 120.811147,111.908859 121.17544,112.095048 C121.690654,112.34901 121.996215,112.53073 122.338204,112.873317 C122.67722,113.187604 122.843754,113.594241 122.843754,114.113335 C122.843754,114.539335 122.660864,114.919905 122.301031,115.246852 C121.940455,115.563373 121.488435,115.716793 120.916717,115.716793 L120.916717,115.716793 Z" id="Fill-38" fill="#002D50"></path>
                    <path d="M51.6426492,122.724865 L53.6522094,122.724865 L52.647801,120.359523 L51.6426492,122.724865 Z M50.1430995,124.67389 L52.6552356,118.90576 L55.1755497,124.67389 L54.4975183,124.67389 L53.8997801,123.299816 L51.3950785,123.299816 L50.7973403,124.67389 L50.1430995,124.67389 Z" id="Fill-40" fill="#002D50"></path>
                    <path d="M51.8673958,122.575765 L53.4279089,122.575765 L52.6472806,120.739944 L51.8673958,122.575765 Z M53.876956,122.873667 L51.4183487,122.873667 L52.6472806,119.979549 L53.876956,122.873667 Z M54.595134,124.52479 L54.9482754,124.52479 L52.6562021,119.277244 L50.3708199,124.52479 L50.7001707,124.52479 L51.2979089,123.150716 L53.9966524,123.150716 L54.595134,124.52479 Z M55.4025267,124.823437 L54.4003487,124.823437 L53.8026105,123.449363 L51.4926942,123.449363 L50.8942126,124.823437 L49.9158251,124.823437 L52.6554586,118.533979 L55.4025267,124.823437 Z" id="Fill-42" fill="#002D50"></path>
                    <path d="M58.1958377,123.356194 C58.674623,123.922953 59.2403927,124.210429 59.8864555,124.210429 C60.6596492,124.210429 61.0908534,123.779215 61.0908534,123.332362 C61.0908534,123.02031 61.0031257,122.781243 60.8276702,122.612929 C60.6596492,122.444614 60.3332723,122.22938 59.8544869,121.981376 C59.6069162,121.854023 59.4158482,121.750502 59.2797958,121.662621 C59.1444869,121.573995 59.001,121.470474 58.8493351,121.343121 C58.5541832,121.078733 58.4270524,120.775617 58.4270524,120.367492 C58.4270524,119.560922 59.0731152,119.00161 60.0938796,119.00161 C60.5481309,119.00161 60.9228325,119.129708 61.2179843,119.385159 L61.2179843,120.088208 C60.8752513,119.744876 60.5005497,119.577306 60.0857016,119.577306 C59.4396387,119.577306 59.0485812,119.888614 59.0485812,120.367492 C59.0485812,120.599855 59.1288743,120.78381 59.2879738,120.926803 C59.4559948,121.071285 59.7347906,121.247048 60.1258482,121.446642 C60.6596492,121.710285 60.9391885,121.885303 61.2499529,122.197355 C61.5688953,122.493023 61.7123822,122.860932 61.7123822,123.332362 C61.7123822,123.723359 61.5451047,124.058499 61.2179843,124.354911 C60.8908639,124.642387 60.4685812,124.786124 59.9340366,124.786124 C59.2322147,124.786124 58.650089,124.561953 58.1958377,124.122548 L58.1958377,123.356194 Z" id="Fill-44" fill="#002D50"></path>
                    <path d="M58.3446775,124.057977 C58.7647298,124.443016 59.2992743,124.636652 59.9341853,124.636652 C60.4300702,124.636652 60.8181539,124.507809 61.1199969,124.242677 C61.4181225,123.973075 61.5638398,123.673684 61.5638398,123.331841 C61.5638398,122.89467 61.4322482,122.569212 61.1489916,122.306313 C60.8635047,122.021072 60.6099864,121.851267 60.0598293,121.580177 C59.6672848,121.379093 59.3758503,121.198117 59.1914733,121.039484 C58.9974314,120.865956 58.9000387,120.640295 58.9000387,120.367715 C58.9000387,119.796488 59.3654419,119.427834 60.0858503,119.427834 C60.4375047,119.427834 60.767599,119.541037 61.0694419,119.762974 L61.0694419,119.45539 C60.8107194,119.253561 60.4828555,119.150785 60.0940283,119.150785 C59.1714,119.150785 58.5758921,119.628918 58.5758921,120.367715 C58.5758921,120.739348 58.6874105,120.998523 58.9483634,121.231631 C59.079955,121.3426 59.2152639,121.442397 59.3609812,121.536981 C59.4791906,121.613691 59.6524157,121.710509 59.9222901,121.849033 C60.4085099,122.10076 60.7482691,122.322698 60.9326461,122.507397 C61.134866,122.701778 61.2396932,122.979572 61.2396932,123.331841 C61.2396932,123.842743 60.7750335,124.359603 59.8866042,124.359603 C59.3126565,124.359603 58.7952115,124.147348 58.3446775,123.728795 L58.3446775,124.057977 Z M59.9341853,124.935299 C59.1966775,124.935299 58.5766356,124.697722 58.0926461,124.229271 L58.0472953,124.186075 L58.0472953,122.949781 L58.3097351,123.260344 C58.7587822,123.7921 59.2896094,124.061701 59.8866042,124.061701 C60.5795047,124.061701 60.9415675,123.695281 60.9415675,123.331841 C60.9415675,123.060005 60.8709393,122.860411 60.7244785,122.720397 C60.6099864,122.605705 60.3572115,122.409834 59.7862377,122.114166 C59.5037246,121.968194 59.3275257,121.869886 59.1989079,121.787219 C59.0435257,121.685932 58.8978084,121.577942 58.7543215,121.457292 C58.428688,121.166093 58.2785099,120.820526 58.2785099,120.367715 C58.2785099,119.461348 59.0078398,118.852883 60.0940283,118.852883 C60.5824785,118.852883 60.9936094,118.993642 61.3155257,119.27218 L61.3668241,119.316865 L61.3668241,120.447404 L61.1133058,120.194187 C60.7988241,119.879156 60.4627822,119.726481 60.0858503,119.726481 C59.5297455,119.726481 59.1974209,119.966292 59.1974209,120.367715 C59.1974209,120.557628 59.2583843,120.699131 59.3877455,120.816058 C59.5490754,120.954582 59.8286147,121.127365 60.1929079,121.313554 C60.7081225,121.567516 61.0136827,121.749236 61.3556723,122.091823 C61.694688,122.40611 61.861222,122.812747 61.861222,123.331841 C61.861222,123.757841 61.6783319,124.138411 61.3184995,124.465358 C60.9579236,124.781879 60.5059026,124.935299 59.9341853,124.935299 L59.9341853,124.935299 Z" id="Fill-46" fill="#002D50"></path>
                    <path d="M65.0263351,123.356194 C65.5051204,123.922953 66.0708901,124.210429 66.7169529,124.210429 C67.4901466,124.210429 67.9213508,123.779215 67.9213508,123.332362 C67.9213508,123.02031 67.833623,122.781243 67.6581675,122.612929 C67.4901466,122.444614 67.1637696,122.22938 66.6849843,121.981376 C66.4374136,121.854023 66.2463455,121.750502 66.1102932,121.662621 C65.9749843,121.573995 65.8314974,121.470474 65.6798325,121.343121 C65.3846806,121.078733 65.2575497,120.775617 65.2575497,120.367492 C65.2575497,119.560922 65.9036126,119.00161 66.924377,119.00161 C67.3786283,119.00161 67.7533298,119.129708 68.0484817,119.385159 L68.0484817,120.088208 C67.7057487,119.744876 67.3310471,119.577306 66.916199,119.577306 C66.2701361,119.577306 65.8790785,119.888614 65.8790785,120.367492 C65.8790785,120.599855 65.9593717,120.78381 66.1184712,120.926803 C66.2864921,121.071285 66.565288,121.247048 66.9563455,121.446642 C67.4901466,121.710285 67.7696859,121.885303 68.0804503,122.197355 C68.3993927,122.493023 68.5428796,122.860932 68.5428796,123.332362 C68.5428796,123.723359 68.3756021,124.058499 68.0484817,124.354911 C67.7213613,124.642387 67.2990785,124.786124 66.764534,124.786124 C66.062712,124.786124 65.4805864,124.561953 65.0263351,124.122548 L65.0263351,123.356194 Z" id="Fill-48" fill="#002D50"></path>
                    <path d="M65.1751749,124.057977 C65.5952272,124.443016 66.1297717,124.636652 66.7646827,124.636652 C67.2605675,124.636652 67.6486513,124.507809 67.9504942,124.242677 C68.2486199,123.973075 68.3943372,123.673684 68.3943372,123.331841 C68.3943372,122.89467 68.2627455,122.569212 67.979489,122.306313 C67.6940021,122.021072 67.4404838,121.851267 66.8903267,121.580177 C66.4977822,121.379093 66.2063476,121.198117 66.0219707,121.039484 C65.8279288,120.865956 65.7305361,120.640295 65.7305361,120.367715 C65.7305361,119.796488 66.1959393,119.427834 66.9163476,119.427834 C67.2680021,119.427834 67.5980963,119.541037 67.8999393,119.762974 L67.8999393,119.45539 C67.6412168,119.253561 67.3133529,119.150785 66.9245257,119.150785 C66.0018974,119.150785 65.4063895,119.628918 65.4063895,120.367715 C65.4063895,120.739348 65.5179079,120.998523 65.7788607,121.231631 C65.9104524,121.3426 66.0457613,121.442397 66.1914785,121.536981 C66.309688,121.613691 66.4829131,121.710509 66.7527874,121.849033 C67.2390073,122.10076 67.5787665,122.322698 67.7631435,122.507397 C67.9653634,122.701778 68.0701906,122.979572 68.0701906,123.331841 C68.0701906,123.842743 67.6055309,124.359603 66.7171016,124.359603 C66.1431539,124.359603 65.6257089,124.147348 65.1751749,123.728795 L65.1751749,124.057977 Z M66.7646827,124.935299 C66.0271749,124.935299 65.407133,124.697722 64.9231435,124.229271 L64.8777927,124.186075 L64.8777927,122.949781 L65.1402325,123.260344 C65.5892796,123.7921 66.1201068,124.061701 66.7171016,124.061701 C67.4100021,124.061701 67.7720649,123.695281 67.7720649,123.331841 C67.7720649,123.060005 67.7014366,122.860411 67.5549759,122.720397 C67.4404838,122.605705 67.1877089,122.409834 66.6167351,122.114166 C66.334222,121.968194 66.158023,121.869886 66.0294052,121.787219 C65.874023,121.685932 65.7283058,121.577942 65.5848188,121.457292 C65.2591853,121.166093 65.1090073,120.820526 65.1090073,120.367715 C65.1090073,119.461348 65.8383372,118.852883 66.9245257,118.852883 C67.4129759,118.852883 67.8241068,118.993642 68.146023,119.27218 L68.1973215,119.316865 L68.1973215,120.447404 L67.9438031,120.194187 C67.6293215,119.879156 67.2932796,119.726481 66.9163476,119.726481 C66.3602429,119.726481 66.0279183,119.966292 66.0279183,120.367715 C66.0279183,120.557628 66.0888817,120.699131 66.2182429,120.816058 C66.3795728,120.954582 66.659112,121.127365 67.0234052,121.313554 C67.5386199,121.567516 67.8441801,121.749236 68.1861696,122.091823 C68.5251853,122.40611 68.6917194,122.812747 68.6917194,123.331841 C68.6917194,123.757841 68.5088293,124.138411 68.1489969,124.465358 C67.7884209,124.781879 67.3364,124.935299 66.7646827,124.935299 L66.7646827,124.935299 Z" id="Fill-50" fill="#002D50"></path>
                    <path d="M72.4790304,121.89357 C72.4790304,122.557147 72.6946325,123.116458 73.1250932,123.555119 C73.5637319,123.994524 74.105711,124.210503 74.7599518,124.210503 C75.4141927,124.210503 75.9561717,123.994524 76.3866325,123.555119 C76.8170932,123.116458 77.0326953,122.557147 77.0326953,121.89357 C77.0326953,121.230737 76.8170932,120.679619 76.3866325,120.240213 C75.9561717,119.800807 75.4141927,119.577381 74.7599518,119.577381 C74.105711,119.577381 73.5637319,119.800807 73.1250932,120.240213 C72.6946325,120.679619 72.4790304,121.230737 72.4790304,121.89357 M71.8649361,121.89357 C71.8649361,121.07136 72.1437319,120.383951 72.702067,119.832087 C73.2685801,119.281713 73.9540461,119.001685 74.7599518,119.001685 C75.5651141,119.001685 76.2513236,119.281713 76.8096586,119.832087 C77.3754283,120.383951 77.6549675,121.07136 77.6549675,121.89357 C77.6549675,122.716524 77.3754283,123.411381 76.8096586,123.9625 C76.2513236,124.514363 75.5651141,124.786199 74.7599518,124.786199 C73.9540461,124.786199 73.2685801,124.514363 72.702067,123.9625 C72.1437319,123.411381 71.8649361,122.716524 71.8649361,121.89357" id="Fill-52" fill="#002D50"></path>
                    <path d="M74.7598775,119.726183 C74.1465267,119.726183 73.6461812,119.928012 73.2305895,120.345819 C72.8246628,120.759158 72.6276471,121.264847 72.6276471,121.893421 C72.6276471,122.519015 72.8306105,123.042578 73.231333,123.450704 C73.640977,123.861809 74.1413225,124.061403 74.7598775,124.061403 C75.3806628,124.061403 75.8780346,123.862553 76.2809874,123.451449 C76.6809665,123.042578 76.8839298,122.51827 76.8839298,121.893421 C76.8839298,121.273784 76.6809665,120.7532 76.2809874,120.34433 C75.8780346,119.93397 75.3665372,119.726183 74.7598775,119.726183 M74.7598775,124.36005 C74.0684639,124.36005 73.4833644,124.123963 73.0201916,123.660725 C72.562223,123.193763 72.3302649,122.599449 72.3302649,121.893421 C72.3302649,121.193351 72.562223,120.602015 73.0194482,120.135798 C73.4885686,119.665858 74.0736681,119.428281 74.7598775,119.428281 C75.4498042,119.428281 76.0326733,119.666602 76.4928723,120.136543 C76.9500974,120.602015 77.181312,121.193351 77.181312,121.893421 C77.181312,122.599449 76.9500974,123.193763 76.4928723,123.659235 C76.0378775,124.123963 75.4550084,124.36005 74.7598775,124.36005 M74.7598775,119.151232 C74.0015529,119.151232 73.3443382,119.416365 72.8060764,119.939183 C72.2804534,120.457533 72.0142963,121.115151 72.0142963,121.893421 C72.0142963,122.676903 72.2804534,123.337501 72.8068199,123.856595 C73.3458251,124.381648 73.9851969,124.637099 74.7598775,124.637099 C75.5263801,124.637099 76.1806209,124.3742 76.7047571,123.856595 C77.2370712,123.338991 77.5062021,122.678393 77.5062021,121.893421 C77.5062021,121.103235 77.2445058,120.463491 76.706244,119.939183 C76.1746733,119.41562 75.5204325,119.151232 74.7598775,119.151232 M74.7598775,124.935001 C73.9160555,124.935001 73.188956,124.643802 72.5986524,124.069595 C72.0128094,123.491665 71.7161707,122.759571 71.7161707,121.893421 C71.7161707,121.033228 72.0128094,120.303368 72.5979089,119.726183 C73.1941602,119.146763 73.9212597,118.852585 74.7598775,118.852585 C75.6014691,118.852585 76.3255948,119.146763 76.9136681,119.726183 C77.5039717,120.300389 77.8035843,121.030249 77.8035843,121.893421 C77.8035843,122.761805 77.5039717,123.494644 76.9129246,124.069595 C76.3315424,124.643802 75.6074168,124.935001 74.7598775,124.935001" id="Fill-54" fill="#002D50"></path>
                    <path d="M85.579534,119.593095 L85.579534,120.312529 C85.1089267,119.824714 84.526801,119.577455 83.8331571,119.577455 C83.1789162,119.577455 82.6369372,119.800882 82.2064764,120.240287 C81.7752723,120.679693 81.5604136,121.230812 81.5604136,121.893644 C81.5604136,122.556476 81.7752723,123.115787 82.2064764,123.555193 C82.6369372,123.994599 83.1789162,124.210578 83.8331571,124.210578 C84.5349791,124.210578 85.1171047,123.962574 85.579534,123.475504 L85.579534,124.194938 C85.1171047,124.585934 84.5349791,124.786273 83.8331571,124.786273 C83.0272513,124.786273 82.3417853,124.513693 81.7752723,123.962574 C81.2169372,123.411455 80.9381414,122.716599 80.9381414,121.893644 C80.9381414,121.07069 81.2169372,120.384025 81.7752723,119.832162 C82.3417853,119.281787 83.0272513,119.001759 83.8331571,119.001759 C84.5349791,119.001759 85.1171047,119.202099 85.579534,119.593095" id="Fill-56" fill="#002D50"></path>
                    <path d="M83.8330827,119.150934 C83.0747581,119.150934 82.4175435,119.416067 81.8792817,119.93963 C81.3536586,120.457979 81.0875016,121.115598 81.0875016,121.893867 C81.0875016,122.676605 81.3536586,123.337203 81.8800251,123.856298 C82.4190304,124.38135 83.0584021,124.636801 83.8330827,124.636801 C84.4657634,124.636801 85.0032817,124.464763 85.4307686,124.124409 L85.4307686,123.816081 C84.9846953,124.177287 84.4486639,124.359752 83.8330827,124.359752 C83.1386953,124.359752 82.5558262,124.124409 82.100088,123.659682 C81.6436063,123.19421 81.4116482,122.599895 81.4116482,121.893867 C81.4116482,121.193053 81.6436063,120.601717 82.100088,120.1355 C82.5610304,119.666305 83.1438995,119.427983 83.8330827,119.427983 C84.4434597,119.427983 84.9794911,119.611937 85.4307686,119.974633 L85.4307686,119.663326 C85.0032817,119.322972 84.4657634,119.150934 83.8330827,119.150934 M83.8330827,124.935448 C82.9892607,124.935448 82.2621613,124.643504 81.6718576,124.069298 C81.0860147,123.491367 80.7893759,122.760018 80.7893759,121.893867 C80.7893759,121.03293 81.0860147,120.303815 81.6711141,119.725885 C82.2673654,119.146465 82.9944649,118.853032 83.8330827,118.853032 C84.5638995,118.853032 85.1839414,119.063798 85.6753654,119.479371 L85.7281508,119.524056 L85.7281508,120.681406 L85.4724021,120.415528 C85.031533,119.958249 84.479889,119.725885 83.8330827,119.725885 C83.226423,119.725885 82.7149257,119.934416 82.3127162,120.344777 C81.9060461,120.75886 81.7090304,121.265294 81.7090304,121.893867 C81.7090304,122.518717 81.9119937,123.043025 82.3127162,123.450406 C82.7156691,123.862256 83.2130408,124.06185 83.8330827,124.06185 C84.4865801,124.06185 85.0382241,123.829486 85.4716586,123.372951 L85.7281508,123.102605 L85.7281508,124.263679 L85.6753654,124.308364 C85.1839414,124.723937 84.5638995,124.935448 83.8330827,124.935448" id="Fill-58" fill="#002D50"></path>
                    <mask id="mask-2" fill="white">
                        <use xlink:href="#path-1"></use>
                    </mask>
                    <g id="Clip-61"></g>
                    <polygon id="Fill-60" fill="#002D50" mask="url(#mask-2)" points="89.4525654 124.674262 90.0748377 124.674262 90.0748377 119.105727 89.4525654 119.105727"></polygon>
                    <path d="M89.602,124.525311 L89.9268901,124.525311 L89.9268901,119.255423 L89.602,119.255423 L89.602,124.525311 Z M89.3046178,124.823213 L90.2242723,124.823213 L90.2242723,118.956776 L89.3046178,118.956776 L89.3046178,124.823213 Z" id="Fill-62" fill="#002D50" mask="url(#mask-2)"></path>
                    <path d="M95.1496649,122.724865 L97.1592251,122.724865 L96.1548168,120.359523 L95.1496649,122.724865 Z M93.6501152,124.67389 L96.1622513,118.90576 L98.6825654,124.67389 L98.004534,124.67389 L97.4067958,123.299816 L94.9020942,123.299816 L94.304356,124.67389 L93.6501152,124.67389 Z" id="Fill-63" fill="#002D50" mask="url(#mask-2)"></path>
                    <path d="M95.3744115,122.575765 L96.9349246,122.575765 L96.1542963,120.739944 L95.3744115,122.575765 Z M97.3839717,122.873667 L94.9253644,122.873667 L96.1542963,119.979549 L97.3839717,122.873667 Z M98.1021497,124.52479 L98.4552911,124.52479 L96.1632178,119.277244 L93.8778356,124.52479 L94.2071864,124.52479 L94.8049246,123.150716 L97.5036681,123.150716 L98.1021497,124.52479 Z M98.9095424,124.823437 L97.9073644,124.823437 L97.3096262,123.449363 L94.9997099,123.449363 L94.4012283,124.823437 L93.4228408,124.823437 L96.1624743,118.533979 L98.9095424,124.823437 Z" id="Fill-64" fill="#002D50" mask="url(#mask-2)"></path>
                    <path d="M102.851046,124.098715 L103.975151,124.098715 C105.474701,124.098715 106.26425,123.236289 106.26425,121.893495 C106.26425,120.543999 105.474701,119.680827 103.966973,119.680827 L102.851046,119.680827 L102.851046,124.098715 Z M102.228774,124.673666 L102.228774,119.105876 L104.015297,119.105876 C104.900753,119.105876 105.602575,119.361327 106.112585,119.872229 C106.630774,120.383876 106.886523,121.054901 106.886523,121.893495 C106.886523,122.732834 106.630774,123.403114 106.120763,123.914761 C105.610009,124.418215 104.908931,124.673666 104.023475,124.673666 L102.228774,124.673666 Z" id="Fill-65" fill="#002D50" mask="url(#mask-2)"></path>
                    <path d="M102.999886,123.949615 L103.975299,123.949615 C105.335823,123.949615 106.114964,123.200392 106.114964,121.893346 C106.114964,120.582577 105.332849,119.830374 103.967121,119.830374 L102.999886,119.830374 L102.999886,123.949615 Z M103.975299,124.247517 L102.702504,124.247517 L102.702504,119.531727 L103.967121,119.531727 C105.49864,119.531727 106.41309,120.415007 106.41309,121.893346 C106.41309,123.367962 105.501614,124.247517 103.975299,124.247517 L103.975299,124.247517 Z M102.377614,124.524566 L104.022881,124.524566 C104.863729,124.524566 105.534326,124.28401 106.016828,123.808857 C106.501561,123.322531 106.737237,122.695448 106.737237,121.893346 C106.737237,121.08901 106.499331,120.461927 106.00865,119.97858 C105.528378,119.497469 104.858525,119.254678 104.015446,119.254678 L102.377614,119.254678 L102.377614,124.524566 Z M104.022881,124.823213 L102.080231,124.823213 L102.080231,118.956776 L104.015446,118.956776 C104.940305,118.956776 105.680786,119.229357 106.218305,119.76707 C106.760284,120.301804 107.035362,121.016769 107.035362,121.893346 C107.035362,122.766944 106.763258,123.481909 106.225739,124.020367 C105.685247,124.553612 104.944765,124.823213 104.022881,124.823213 L104.022881,124.823213 Z" id="Fill-66" fill="#002D50" mask="url(#mask-2)"></path>
                    <path d="M110.806912,121.89357 C110.806912,122.557147 111.022514,123.116458 111.452975,123.555119 C111.891614,123.994524 112.433593,124.210503 113.087834,124.210503 C113.742074,124.210503 114.284053,123.994524 114.714514,123.555119 C115.144975,123.116458 115.360577,122.557147 115.360577,121.89357 C115.360577,121.230737 115.144975,120.679619 114.714514,120.240213 C114.284053,119.800807 113.742074,119.577381 113.087834,119.577381 C112.433593,119.577381 111.891614,119.800807 111.452975,120.240213 C111.022514,120.679619 110.806912,121.230737 110.806912,121.89357 M110.192818,121.89357 C110.192818,121.07136 110.471614,120.383951 111.029949,119.832087 C111.596462,119.281713 112.281928,119.001685 113.087834,119.001685 C113.892996,119.001685 114.579205,119.281713 115.13754,119.832087 C115.70331,120.383951 115.982849,121.07136 115.982849,121.89357 C115.982849,122.716524 115.70331,123.411381 115.13754,123.9625 C114.579205,124.514363 113.892996,124.786199 113.087834,124.786199 C112.281928,124.786199 111.596462,124.514363 111.029949,123.9625 C110.471614,123.411381 110.192818,122.716524 110.192818,121.89357" id="Fill-67" fill="#002D50" mask="url(#mask-2)"></path>
                    <path d="M113.087759,119.726183 C112.474408,119.726183 111.974063,119.928012 111.558471,120.345819 C111.152545,120.759158 110.955529,121.264847 110.955529,121.893421 C110.955529,122.519015 111.158492,123.042578 111.559215,123.450704 C111.968859,123.861809 112.469204,124.061403 113.087759,124.061403 C113.708545,124.061403 114.205916,123.862553 114.608869,123.451449 C115.008848,123.042578 115.211812,122.51827 115.211812,121.893421 C115.211812,121.273784 115.008848,120.7532 114.608869,120.34433 C114.205916,119.93397 113.694419,119.726183 113.087759,119.726183 M113.087759,124.36005 C112.396346,124.36005 111.811246,124.123963 111.348073,123.660725 C110.890105,123.193763 110.658147,122.599449 110.658147,121.893421 C110.658147,121.193351 110.890105,120.602015 111.34733,120.135798 C111.81645,119.665858 112.40155,119.428281 113.087759,119.428281 C113.777686,119.428281 114.360555,119.666602 114.820754,120.136543 C115.277979,120.602015 115.509194,121.193351 115.509194,121.893421 C115.509194,122.599449 115.277979,123.193763 114.820754,123.659235 C114.365759,124.123963 113.78289,124.36005 113.087759,124.36005 M113.087759,119.151232 C112.329435,119.151232 111.67222,119.416365 111.133958,119.939183 C110.608335,120.457533 110.342178,121.115151 110.342178,121.893421 C110.342178,122.676903 110.608335,123.337501 111.134702,123.856595 C111.673707,124.381648 112.313079,124.637099 113.087759,124.637099 C113.854262,124.637099 114.508503,124.3742 115.032639,123.856595 C115.564953,123.338991 115.834084,122.678393 115.834084,121.893421 C115.834084,121.103235 115.572387,120.463491 115.034126,119.939183 C114.502555,119.41562 113.848314,119.151232 113.087759,119.151232 M113.087759,124.935001 C112.243937,124.935001 111.516838,124.643802 110.926534,124.069595 C110.340691,123.491665 110.044052,122.759571 110.044052,121.893421 C110.044052,121.033228 110.340691,120.303368 110.925791,119.726183 C111.522042,119.146763 112.249141,118.852585 113.087759,118.852585 C113.929351,118.852585 114.653476,119.146763 115.24155,119.726183 C115.831853,120.300389 116.131466,121.030249 116.131466,121.893421 C116.131466,122.761805 115.831853,123.494644 115.240806,124.069595 C114.659424,124.643802 113.935298,124.935001 113.087759,124.935001" id="Fill-68" fill="#002D50" mask="url(#mask-2)"></path>
                    <path d="M119.178741,123.356194 C119.657527,123.922953 120.223296,124.210429 120.869359,124.210429 C121.642553,124.210429 122.073757,123.779215 122.073757,123.332362 C122.073757,123.02031 121.986029,122.781243 121.810574,122.612929 C121.642553,122.444614 121.316176,122.22938 120.837391,121.981376 C120.58982,121.854023 120.398752,121.750502 120.262699,121.662621 C120.127391,121.573995 119.983904,121.470474 119.832239,121.343121 C119.537087,121.078733 119.409956,120.775617 119.409956,120.367492 C119.409956,119.560922 120.056019,119.00161 121.076783,119.00161 C121.531035,119.00161 121.905736,119.129708 122.200888,119.385159 L122.200888,120.088208 C121.858155,119.744876 121.483453,119.577306 121.068605,119.577306 C120.422542,119.577306 120.031485,119.888614 120.031485,120.367492 C120.031485,120.599855 120.111778,120.78381 120.270877,120.926803 C120.438898,121.071285 120.717694,121.247048 121.108752,121.446642 C121.642553,121.710285 121.922092,121.885303 122.232857,122.197355 C122.551799,122.493023 122.695286,122.860932 122.695286,123.332362 C122.695286,123.723359 122.528008,124.058499 122.200888,124.354911 C121.873768,124.642387 121.451485,124.786124 120.91694,124.786124 C120.215118,124.786124 119.632993,124.561953 119.178741,124.122548 L119.178741,123.356194 Z" id="Fill-69" fill="#002D50" mask="url(#mask-2)"></path>
                    <path d="M119.327581,124.057977 C119.747634,124.443016 120.282178,124.636652 120.917089,124.636652 C121.412974,124.636652 121.801058,124.507809 122.102901,124.242677 C122.401026,123.973075 122.546743,123.673684 122.546743,123.331841 C122.546743,122.89467 122.415152,122.569212 122.131895,122.306313 C121.846408,122.021072 121.59289,121.851267 121.042733,121.580177 C120.650188,121.379093 120.358754,121.198117 120.174377,121.039484 C119.980335,120.865956 119.882942,120.640295 119.882942,120.367715 C119.882942,119.796488 120.348346,119.427834 121.068754,119.427834 C121.420408,119.427834 121.750503,119.541037 122.052346,119.762974 L122.052346,119.45539 C121.793623,119.253561 121.465759,119.150785 121.076932,119.150785 C120.154304,119.150785 119.558796,119.628918 119.558796,120.367715 C119.558796,120.739348 119.670314,120.998523 119.931267,121.231631 C120.062859,121.3426 120.198168,121.442397 120.343885,121.536981 C120.462094,121.613691 120.635319,121.710509 120.905194,121.849033 C121.391414,122.10076 121.731173,122.322698 121.91555,122.507397 C122.11777,122.701778 122.222597,122.979572 122.222597,123.331841 C122.222597,123.842743 121.757937,124.359603 120.869508,124.359603 C120.29556,124.359603 119.778115,124.147348 119.327581,123.728795 L119.327581,124.057977 Z M120.917089,124.935299 C120.179581,124.935299 119.559539,124.697722 119.07555,124.229271 L119.030199,124.186075 L119.030199,122.949781 L119.292639,123.260344 C119.741686,123.7921 120.272513,124.061701 120.869508,124.061701 C121.562408,124.061701 121.924471,123.695281 121.924471,123.331841 C121.924471,123.060005 121.853843,122.860411 121.707382,122.720397 C121.59289,122.605705 121.340115,122.409834 120.769141,122.114166 C120.486628,121.968194 120.310429,121.869886 120.181812,121.787219 C120.026429,121.685932 119.880712,121.577942 119.737225,121.457292 C119.411592,121.166093 119.261414,120.820526 119.261414,120.367715 C119.261414,119.461348 119.990743,118.852883 121.076932,118.852883 C121.565382,118.852883 121.976513,118.993642 122.298429,119.27218 L122.349728,119.316865 L122.349728,120.447404 L122.096209,120.194187 C121.781728,119.879156 121.445686,119.726481 121.068754,119.726481 C120.512649,119.726481 120.180325,119.966292 120.180325,120.367715 C120.180325,120.557628 120.241288,120.699131 120.370649,120.816058 C120.531979,120.954582 120.811518,121.127365 121.175812,121.313554 C121.691026,121.567516 121.996586,121.749236 122.338576,122.091823 C122.677592,122.40611 122.844126,122.812747 122.844126,123.331841 C122.844126,123.757841 122.661236,124.138411 122.301403,124.465358 C121.940827,124.781879 121.488806,124.935299 120.917089,124.935299 L120.917089,124.935299 Z" id="Fill-70" fill="#002D50" mask="url(#mask-2)"></path>
                    <path d="M53.3208513,100.371335 C50.4340136,97.8935339 49.6095215,94.8541878 49.6095215,91.6971703 C49.6095215,89.6900549 50.2868094,86.0318171 53.2613749,83.5242262 C55.7950712,81.3703941 58.7406419,80.4848801 63.0110503,80.4848801 C64.6897728,80.4848801 66.0443487,80.6621318 67.1937309,80.8386388 C68.5185686,81.0456808 69.2255948,81.1931423 70.1095634,81.2229325 C70.4337099,81.251978 70.4337099,81.428485 70.4337099,81.6064815 C70.4337099,81.8425689 70.3444953,82.5500864 70.2857623,83.5532717 C70.2270293,84.5274115 70.2567675,86.2679045 70.1972911,87.005957 C70.1682963,87.4475969 70.1095634,87.7134745 69.8441497,87.7134745 C69.6084743,87.7134745 69.5200031,87.507922 69.4910084,87.0938381 C69.4612702,86.4451563 69.3438042,85.2647192 68.3713644,84.2026983 C67.3401916,83.1108871 65.2785895,82.3437892 62.4222335,82.3437892 C60.6840346,82.3437892 59.2409874,82.7571283 58.0923487,83.7595689 C56.2954168,85.3242997 55.5006628,88.0672332 55.5006628,91.2249955 C55.5006628,97.302943 58.7993749,101.37452 63.7470712,101.37452 C66.1625581,101.37452 67.6643382,101.167478 68.812977,99.8701143 C69.2255948,99.426985 69.5497414,98.7775584 69.7854168,97.8935339 C69.9326209,97.2738976 70.0210921,97.0668556 70.2567675,97.0668556 C70.4627047,97.0668556 70.4924429,97.3617787 70.4924429,97.5978661 C70.4924429,98.0990864 70.1385581,100.666258 69.8441497,102.082782 C69.7854168,102.525912 69.5794796,102.761254 69.0783906,102.938506 C67.9000136,103.410681 65.897888,103.616233 64.0124848,103.616233 C60.1829455,103.616233 56.4136262,102.967551 53.3208513,100.371335" id="Fill-71" fill="#002D50" mask="url(#mask-2)"></path>
                    <path d="M81.2999068,89.7789042 C81.2999068,90.0149916 81.4181162,90.0440371 81.564577,90.0738273 C82.0366712,90.1624531 83.0083675,90.1922434 83.4209853,90.1922434 C84.0982733,90.1922434 84.7755613,90.0738273 85.1874356,89.7200685 C85.806734,89.2181035 86.1598754,88.185128 86.1598754,86.9168098 C86.1598754,84.5268902 84.9814984,82.5205196 82.6544827,82.5205196 C82.1831319,82.5205196 81.8299906,82.5801 81.5943152,82.6679811 C81.4181162,82.7275615 81.2999068,82.7863972 81.2999068,83.1997364 L81.2999068,89.7789042 Z M81.2999068,94.4701175 C81.2999068,95.886642 81.2701686,97.9518483 81.3586398,99.4562538 C81.4181162,100.400603 81.5355822,100.784152 82.124399,101.07982 C82.7726921,101.462624 83.4797183,101.551995 84.0685351,101.551995 C85.6000534,101.551995 87.4259801,100.489974 87.4259801,97.5392538 C87.4259801,96.0043133 87.043844,94.2630755 85.6885246,92.9947573 C84.8930272,92.2284042 83.8625979,91.9334811 82.9496346,91.8739007 C82.4782838,91.8441105 81.7712576,91.8441105 81.4768492,91.8739007 C81.3586398,91.8739007 81.2999068,91.9334811 81.2999068,92.0809427 L81.2999068,94.4701175 Z M76.2042628,89.4541909 C76.2042628,85.1167364 76.1752681,84.2915476 76.1455298,83.3471979 C76.1157916,82.1369706 75.7039173,81.6647958 74.8496869,81.5761699 C74.4965455,81.5471245 74.0839277,81.5173343 73.7597812,81.4882888 C73.3181686,81.4584986 73.2296974,81.3408273 73.2296974,81.1933657 C73.2296974,80.9565336 73.4653728,80.8976979 73.8185141,80.8976979 C75.6154461,80.8976979 77.0882314,80.9863238 78.5312785,80.9863238 C80.4754147,80.9863238 82.2128702,80.8976979 83.3615089,80.8976979 C89.5760534,80.8976979 90.7544304,83.7895825 90.7544304,85.4421944 C90.7544304,87.832114 89.1054461,89.365565 87.1613099,90.3694951 C90.2533414,91.3138448 92.8755089,93.2017993 92.8755089,96.7721559 C92.8755089,100.046845 89.8117288,103.292488 83.9503257,103.292488 C82.8611634,103.292488 79.3855089,103.115236 78.5015403,103.115236 C77.2056974,103.115236 75.8213832,103.203862 74.2311319,103.203862 C73.8185141,103.203862 73.612577,103.115236 73.612577,102.908939 C73.612577,102.702642 73.7597812,102.613271 74.2013937,102.613271 C74.5842733,102.584226 74.8496869,102.554436 75.0853623,102.4956 C75.6154461,102.406974 75.9395927,101.96459 76.0280639,100.872778 C76.1455298,99.2507014 76.2042628,97.5392538 76.2042628,93.8214357 L76.2042628,89.4541909 Z" id="Fill-72" fill="#002D50" mask="url(#mask-2)"></path>
                    <path d="M109.779605,100.16474 C106.952244,97.5096871 104.625228,94.9425157 102.23948,91.9917955 C101.8566,92.4341801 101.414987,93.4083199 101.414987,95.0601871 C101.414987,98.7489598 103.859469,100.961628 106.628097,100.961628 C107.92394,100.961628 109.013846,100.636914 109.779605,100.16474 M96.1721393,96.8900507 C96.1721393,93.6444073 98.557888,91.6678269 101.149574,90.4285542 C99.9132073,88.6873164 99.7652597,87.2410017 99.7652597,86.0910997 C99.7652597,83.2878409 102.23948,80.4845822 107.45259,80.4845822 C109.27926,80.4845822 110.692569,80.8100402 111.546799,81.1630542 C112.01815,81.3708409 112.135616,81.6061836 112.135616,82.0195227 C112.135616,82.6682045 111.900684,85.14675 111.812213,86.0613094 C111.752736,86.5036941 111.63527,86.6511556 111.458328,86.6511556 C111.282129,86.6511556 111.163919,86.4746486 111.163919,86.0613094 C111.134181,85.14675 110.869511,84.3208164 110.162485,83.4941381 C109.573668,82.8156661 108.483762,82.1371941 107.129186,82.1371941 C106.009542,82.1371941 104.536757,82.6682045 104.536757,84.8510822 C104.536757,87.2119563 106.362684,89.1006556 108.984851,92.0811661 C109.779605,92.9949808 113.432202,96.5653374 113.696872,96.8304703 C114.521364,95.5323619 115.199396,94.1456276 115.199396,92.346299 C115.199396,91.579201 114.875249,91.1658619 114.433637,90.9297745 C114.10949,90.7234773 113.638139,90.6341066 113.343731,90.6050612 C112.989846,90.5164353 112.813647,90.4285542 112.813647,90.2513024 C112.813647,89.9854248 113.225521,89.9854248 113.461197,89.9854248 C114.698307,89.9854248 116.759909,90.1328864 117.70261,90.2810927 C118.321165,90.398764 118.645312,90.5462255 118.674307,91.253743 C118.704045,93.1424423 117.378464,96.0045367 115.316862,98.1881591 C116.701176,99.4274318 118.46837,100.814166 119.234129,101.315386 C120.29504,102.023649 121.001323,102.407198 122.062234,102.495823 C122.532841,102.554659 122.650307,102.67233 122.650307,102.879372 C122.650307,103.11546 122.415375,103.204086 121.826558,103.204086 C121.442935,103.204086 117.23126,103.144505 116.84838,103.144505 C114.197961,103.144505 112.960851,102.760956 111.252391,101.462848 C109.809343,102.584449 107.776736,103.61668 104.654966,103.61668 C97.9690712,103.61668 96.1721393,99.6627745 96.1721393,96.8900507" id="Fill-73" fill="#B6A373" mask="url(#mask-2)"></path>
                    <path d="M122.994452,79.7676063 C122.835353,74.750935 122.676253,69.7335189 122.558044,64.7168476 L122.170704,49.6660888 C122.113458,47.1577531 122.016065,44.6494175 122.023499,42.1410818 C122.041342,39.6320014 122.053981,37.1236657 122.04729,34.6153301 L122.04729,19.5653161 L122.994452,20.5141343 L18.9203476,20.5141343 L19.8682534,19.5653161 L19.8682534,79.7355818 L19.8682534,94.7781483 L19.8682534,102.299431 C19.8719707,104.792127 19.8518974,107.347383 19.8994785,109.787201 C19.991667,112.122008 20.5968398,114.453092 21.7952901,116.495956 C22.9825885,118.540309 24.7222743,120.273355 26.7875937,121.478369 C28.8610911,122.682638 31.2431225,123.321638 33.6868607,123.358131 C36.1893319,123.488463 38.6918031,123.65082 41.1950178,123.821369 C38.6918031,123.991917 36.1893319,124.154274 33.6868607,124.283862 C31.1226827,124.408236 28.4841592,123.826582 26.1608607,122.628271 C23.8383058,121.421767 21.8161068,119.60382 20.3730597,117.378491 C18.9352168,115.15912 18.0319183,112.533858 17.9664942,109.854229 L17.9731853,79.7355818 L17.9731853,19.5653161 L17.9731853,18.6164979 L18.9203476,18.6164979 L122.994452,18.6164979 L123.941615,18.6164979 L123.941615,19.5653161 L123.941615,34.6153301 C123.934924,37.1236657 123.947562,39.6320014 123.965405,42.1410818 C123.973583,44.6494175 123.875447,47.1577531 123.818945,49.6660888 L123.430861,64.7168476 C123.312651,69.7335189 123.153552,74.750935 122.994452,79.7676063" id="Fill-74" fill="#002D50" mask="url(#mask-2)"></path>
                </g>
            </g>
        </g>
    </g>
</svg>