<?xml version="1.0" encoding="UTF-8" standalone="no"?>
<svg width="33px" height="19px" viewBox="0 0 33 19" version="1.1" xmlns="http://www.w3.org/2000/svg" xmlns:xlink="http://www.w3.org/1999/xlink">
    <!-- Generator: Sketch 46 (44423) - http://www.bohemiancoding.com/sketch -->
    <title>seta baixo Main</title>
    <desc>Created with Sketch.</desc>
    <defs></defs>
    <g id="Page-1" stroke="none" stroke-width="1" fill="none" fill-rule="evenodd">
        <g id="Home-sem-hover-Copy" transform="translate(-684.000000, -533.000000)" fill="#FFFFFF">
            <g id="Main" transform="translate(0.000000, 91.000000)">
                <path d="M684.257812,443.924805 C684.257812,443.795898 684.284668,443.661622 684.338379,443.521973 C684.39209,443.382324 684.472656,443.25879 684.580078,443.151367 C684.794923,442.958007 685.052733,442.861328 685.353516,442.861328 C685.654298,442.861328 685.912108,442.958007 686.126953,443.151367 L700.693359,457.717773 L715.03418,443.376953 C715.249025,443.162108 715.506834,443.054688 715.807617,443.054688 C716.1084,443.054688 716.36621,443.162108 716.581055,443.376953 C716.7959,443.591798 716.90332,443.849608 716.90332,444.150391 C716.90332,444.451173 716.7959,444.708983 716.581055,444.923828 L701.466797,460.038086 C701.251952,460.252931 700.994142,460.360352 700.693359,460.360352 C700.392577,460.360352 700.134767,460.252931 699.919922,460.038086 L684.580078,444.730469 C684.472656,444.623046 684.39209,444.499512 684.338379,444.359863 C684.284668,444.220214 684.257812,444.075196 684.257812,443.924805 Z" id="seta-baixo-Main"></path>
            </g>
        </g>
    </g>
</svg>