<svg width="16" height="16" viewBox="0 0 16 16" xmlns="http://www.w3.org/2000/svg"><title>local_phone - material</title><path d="M3.5 6.98c.613 1.173 1.393 2.233 2.34 3.18.947.947 2.007 1.727 3.18 2.34l1.84-1.84c.107-.12.24-.2.4-.24.16-.04.313-.027.46.04.88.307 1.867.46 2.96.46.227 0 .42.08.58.24.16.16.24.353.24.58v2.94c0 .227-.08.42-.24.58-.16.16-.353.24-.58.24-1.92 0-3.76-.373-5.52-1.12-1.693-.72-3.193-1.733-4.5-3.04s-2.32-2.807-3.04-4.5C.873 5.08.5 3.24.5 1.32.5 1.093.58.9.74.74.9.58 1.093.5 1.32.5h2.94c.227 0 .42.08.58.24.16.16.24.353.24.58 0 1.093.153 2.08.46 2.96.04.147.047.3.02.46-.027.16-.1.293-.22.4L3.5 6.98z" fill="#002954" fill-rule="evenodd"/></svg>