<?xml version="1.0" encoding="UTF-8" standalone="no"?>
<svg width="13px" height="14px" viewBox="0 0 13 14" version="1.1" xmlns="http://www.w3.org/2000/svg" xmlns:xlink="http://www.w3.org/1999/xlink">
    <!-- Generator: Sketch 46 (44423) - http://www.bohemiancoding.com/sketch -->
    <title>local_phone - material</title>
    <desc>Created with Sketch.</desc>
    <defs></defs>
    <g id="Symbols" stroke="none" stroke-width="1" fill="none" fill-rule="evenodd">
        <g id="Profissionais-renata-aberto" transform="translate(-27.000000, -348.000000)" fill="#FFFFFF">
            <path d="M29.675,354.183 C30.1963359,355.180338 30.8593293,356.081329 31.664,356.886 C32.4686707,357.690671 33.3696617,358.353664 34.367,358.875 L35.931,357.311 C36.0216671,357.208999 36.1349993,357.141 36.271,357.107 C36.4070007,357.073 36.5373327,357.084333 36.662,357.141 C37.4100037,357.401668 38.248662,357.532 39.178,357.532 C39.3706676,357.532 39.5349993,357.599999 39.671,357.736 C39.8070007,357.872001 39.875,358.036332 39.875,358.229 L39.875,360.728 C39.875,360.920668 39.8070007,361.084999 39.671,361.221 C39.5349993,361.357001 39.3706676,361.425 39.178,361.425 C37.5459918,361.425 35.9820075,361.10767 34.486,360.473 C33.0466595,359.860997 31.7716722,358.999672 30.661,357.889 C29.5503278,356.778328 28.6890031,355.503341 28.077,354.064 C27.4423302,352.567993 27.125,351.004008 27.125,349.372 C27.125,349.179332 27.1929993,349.015001 27.329,348.879 C27.4650007,348.742999 27.6293324,348.675 27.822,348.675 L30.321,348.675 C30.5136676,348.675 30.6779993,348.742999 30.814,348.879 C30.9500007,349.015001 31.018,349.179332 31.018,349.372 C31.018,350.301338 31.148332,351.139996 31.409,351.888 C31.4430002,352.012667 31.4486668,352.142999 31.426,352.279 C31.4033332,352.415001 31.3410005,352.528333 31.239,352.619 L29.675,354.183 Z" id="local_phone---material"></path>
        </g>
    </g>
</svg>